# Blender 4.4.1
# www.blender.org
mtllib player.mtl
o 立方体
v -0.260000 -0.286620 0.285000
v -0.260000 0.180815 0.285000
v -0.260000 -0.286620 -0.285000
v -0.260000 0.180815 -0.285000
v 0.260000 -0.286620 0.285000
v 0.260000 0.180815 0.285000
v 0.260000 -0.286620 -0.285000
v 0.260000 0.180815 -0.285000
v -0.316975 -0.341403 -0.000000
v -0.316975 -0.069185 0.347454
v -0.316975 0.235598 -0.000000
v -0.316975 -0.069185 -0.347454
v 0.000000 -0.341404 -0.347454
v 0.000000 0.235598 -0.347454
v 0.316975 -0.069185 -0.347454
v 0.316975 -0.341404 -0.000000
v 0.316975 0.235598 -0.000000
v 0.316975 -0.069185 0.347454
v 0.000000 -0.341404 0.347454
v 0.000000 0.235599 0.347454
v -0.436543 -0.069185 -0.000000
v 0.000000 -0.069185 -0.478518
v 0.436543 -0.069185 -0.000000
v 0.000000 -0.069185 0.478518
v 0.000000 -0.397789 -0.000000
v 0.000000 0.525386 -0.000000
vn -0.8920 -0.3514 0.2845
vn -0.8906 -0.3614 0.2760
vn -0.8860 -0.3892 0.2519
vn -0.9053 0.3167 0.2830
vn -0.9050 0.3221 0.2781
vn -0.9065 0.2845 0.3119
vn -0.9050 0.3221 -0.2781
vn -0.9053 0.3167 -0.2830
vn -0.9065 0.2845 -0.3119
vn -0.8906 -0.3614 -0.2760
vn -0.8920 -0.3514 -0.2845
vn -0.8860 -0.3892 -0.2519
vn -0.3299 -0.3761 -0.8658
vn -0.3238 -0.3829 -0.8652
vn -0.2942 -0.4146 -0.8611
vn -0.3288 0.3401 -0.8811
vn -0.3271 0.3418 -0.8810
vn -0.3641 0.3030 -0.8807
vn 0.3271 0.3418 -0.8810
vn 0.3288 0.3401 -0.8811
vn 0.3641 0.3030 -0.8807
vn 0.3238 -0.3829 -0.8652
vn 0.3299 -0.3761 -0.8658
vn 0.2942 -0.4146 -0.8611
vn 0.8920 -0.3514 -0.2845
vn 0.8906 -0.3614 -0.2760
vn 0.8860 -0.3892 -0.2519
vn 0.9053 0.3167 -0.2830
vn 0.9050 0.3221 -0.2781
vn 0.9065 0.2845 -0.3119
vn 0.9050 0.3221 0.2781
vn 0.9053 0.3167 0.2830
vn 0.9065 0.2845 0.3119
vn 0.8906 -0.3614 0.2760
vn 0.8920 -0.3514 0.2845
vn 0.8860 -0.3892 0.2519
vn 0.3299 -0.3761 0.8658
vn 0.3238 -0.3829 0.8652
vn 0.2942 -0.4146 0.8611
vn 0.3288 0.3401 0.8811
vn 0.3271 0.3418 0.8810
vn 0.3641 0.3030 0.8807
vn -0.3271 0.3418 0.8810
vn -0.3288 0.3401 0.8811
vn -0.3641 0.3030 0.8807
vn -0.3238 -0.3829 0.8652
vn -0.3299 -0.3761 0.8658
vn -0.2942 -0.4146 0.8611
vn -0.2075 -0.9605 -0.1854
vn -0.2034 -0.9606 -0.1891
vn -0.1709 -0.9607 -0.2188
vn 0.2075 -0.9605 -0.1854
vn 0.2034 -0.9606 -0.1891
vn 0.2393 -0.9584 -0.1555
vn 0.2034 -0.9606 0.1891
vn 0.2075 -0.9605 0.1854
vn 0.2393 -0.9584 0.1555
vn -0.2034 -0.9606 0.1891
vn -0.2075 -0.9605 0.1854
vn -0.1709 -0.9607 0.2188
vn 0.4647 0.7774 -0.4239
vn 0.4774 0.7632 -0.4355
vn 0.2535 0.9393 -0.2312
vn -0.4647 0.7774 -0.4239
vn -0.4774 0.7632 -0.4355
vn -0.5746 0.6285 -0.5242
vn -0.4774 0.7632 0.4355
vn -0.4647 0.7774 0.4239
vn -0.5746 0.6285 0.5242
vn 0.4774 0.7632 0.4355
vn 0.4647 0.7774 0.4239
vn 0.2535 0.9393 0.2312
vn -0.8949 -0.3230 0.3080
vn -0.9018 0.3538 0.2483
vn -0.9018 0.3538 -0.2483
vn -0.8949 -0.3230 -0.3080
vn -0.3589 -0.3433 -0.8679
vn -0.2908 0.3780 -0.8790
vn 0.2908 0.3780 -0.8790
vn 0.3589 -0.3433 -0.8679
vn 0.8949 -0.3230 -0.3080
vn 0.9018 0.3538 -0.2483
vn 0.9018 0.3538 0.2483
vn 0.8949 -0.3230 0.3080
vn 0.3589 -0.3433 0.8679
vn 0.2908 0.3780 0.8790
vn -0.2908 0.3780 0.8790
vn -0.3589 -0.3433 0.8679
vn -0.2393 -0.9584 -0.1555
vn 0.1709 -0.9607 -0.2188
vn 0.1709 -0.9607 0.2188
vn -0.2393 -0.9584 0.1555
vn 0.5746 0.6285 -0.5242
vn -0.2535 0.9393 -0.2312
vn -0.2535 0.9393 0.2312
vn 0.5746 0.6285 0.5242
vt 0.375000 0.000000
vt 0.500000 0.125000
vt 0.375000 0.125000
vt 0.625000 0.000000
vt 0.500000 0.000000
vt 0.625000 0.250000
vt 0.500000 0.250000
vt 0.375000 0.250000
vt 0.500000 0.375000
vt 0.375000 0.375000
vt 0.625000 0.500000
vt 0.500000 0.500000
vt 0.375000 0.500000
vt 0.500000 0.625000
vt 0.375000 0.625000
vt 0.625000 0.750000
vt 0.500000 0.750000
vt 0.375000 0.750000
vt 0.500000 0.875000
vt 0.375000 0.875000
vt 0.625000 1.000000
vt 0.500000 1.000000
vt 0.375000 1.000000
vt 0.125000 0.500000
vt 0.250000 0.625000
vt 0.125000 0.625000
vt 0.250000 0.500000
vt 0.250000 0.750000
vt 0.125000 0.750000
vt 0.750000 0.500000
vt 0.625000 0.625000
vt 0.875000 0.625000
vt 0.750000 0.625000
vt 0.750000 0.750000
vt 0.625000 0.125000
vt 0.625000 0.375000
vt 0.625000 0.875000
vt 0.875000 0.500000
vt 0.875000 0.750000
s 1
usemtl マテリアル
f 1/1/1 21/2/2 9/3/3
f 2/4/4 21/2/5 10/5/6
f 21/2/7 4/6/8 12/7/9
f 21/2/10 3/8/11 9/3/12
f 3/8/13 22/9/14 13/10/15
f 4/6/16 22/9/17 12/7/18
f 22/9/19 8/11/20 15/12/21
f 22/9/22 7/13/23 13/10/24
f 7/13/25 23/14/26 16/15/27
f 8/11/28 23/14/29 15/12/30
f 23/14/31 6/16/32 18/17/33
f 23/14/34 5/18/35 16/15/36
f 5/18/37 24/19/38 19/20/39
f 6/16/40 24/19/41 18/17/42
f 24/19/43 2/21/44 10/22/45
f 24/19/46 1/23/47 19/20/48
f 3/24/49 25/25/50 9/26/51
f 7/13/52 25/25/53 13/27/54
f 25/25/55 5/18/56 19/28/57
f 25/25/58 1/29/59 9/26/60
f 14/30/61 17/31/62 8/11/63
f 14/30/64 11/32/65 26/33/66
f 11/32/67 20/34/68 26/33/69
f 17/31/70 20/34/71 6/16/72
f 1/1/1 10/5/73 21/2/2
f 2/4/4 11/35/74 21/2/5
f 21/2/7 11/35/75 4/6/8
f 21/2/10 12/7/76 3/8/11
f 3/8/13 12/7/77 22/9/14
f 4/6/16 14/36/78 22/9/17
f 22/9/19 14/36/79 8/11/20
f 22/9/22 15/12/80 7/13/23
f 7/13/25 15/12/81 23/14/26
f 8/11/28 17/31/82 23/14/29
f 23/14/31 17/31/83 6/16/32
f 23/14/34 18/17/84 5/18/35
f 5/18/37 18/17/85 24/19/38
f 6/16/40 20/37/86 24/19/41
f 24/19/43 20/37/87 2/21/44
f 24/19/46 10/22/88 1/23/47
f 3/24/49 13/27/89 25/25/50
f 7/13/52 16/15/90 25/25/53
f 25/25/55 16/15/91 5/18/56
f 25/25/58 19/28/92 1/29/59
f 14/30/61 26/33/93 17/31/62
f 14/30/64 4/38/94 11/32/65
f 11/32/67 2/39/95 20/34/68
f 17/31/70 26/33/96 20/34/71
