# Blender 4.4.1
# www.blender.org
mtllib LeverLeft.mtl
o Lever_Left_Cube.472
v -0.350665 -0.265803 0.166748
v -0.350665 -0.265804 -0.166748
v 0.350665 -0.265804 -0.166748
v 0.350665 -0.265803 0.166748
v -0.455347 -0.482734 -0.495848
v -0.455347 -0.523234 -0.455347
v -0.495848 -0.482734 -0.455347
v -0.455347 -0.511372 -0.483985
v -0.478730 -0.506116 -0.478730
v -0.483985 -0.511372 -0.455347
v -0.483985 -0.482734 -0.483985
v 0.455347 -0.482734 -0.495848
v 0.495848 -0.482734 -0.455347
v 0.455347 -0.523234 -0.455347
v 0.483985 -0.482734 -0.483985
v 0.478730 -0.506116 -0.478730
v 0.483985 -0.511372 -0.455347
v 0.455347 -0.511372 -0.483985
v -0.455347 -0.482733 0.495848
v -0.495848 -0.482733 0.455347
v -0.455347 -0.523233 0.455347
v -0.483985 -0.482733 0.483985
v -0.478730 -0.506116 0.478730
v -0.483985 -0.511371 0.455347
v -0.455347 -0.511371 0.483985
v 0.495848 -0.482733 0.455347
v 0.455347 -0.482733 0.495848
v 0.455347 -0.523233 0.455347
v 0.483985 -0.482733 0.483985
v 0.478730 -0.506116 0.478730
v 0.455347 -0.511371 0.483985
v 0.483985 -0.511371 0.455347
v -0.455347 -0.289523 -0.495848
v -0.495848 -0.289523 -0.455348
v -0.455347 -0.249023 -0.455348
v -0.483985 -0.289523 -0.483986
v -0.478730 -0.266140 -0.478730
v -0.483985 -0.260885 -0.455348
v -0.455347 -0.260885 -0.483986
v 0.455347 -0.289523 -0.495848
v 0.455347 -0.249023 -0.455348
v 0.495848 -0.289523 -0.455348
v 0.455347 -0.260885 -0.483986
v 0.478730 -0.266140 -0.478730
v 0.483985 -0.260885 -0.455348
v 0.483985 -0.289523 -0.483986
v 0.495848 -0.289523 0.455347
v 0.455347 -0.249023 0.455347
v 0.455347 -0.289523 0.495847
v 0.483985 -0.260885 0.455347
v 0.478730 -0.266140 0.478730
v 0.455347 -0.260885 0.483985
v 0.483985 -0.289523 0.483985
v -0.455347 -0.289523 0.495847
v -0.455347 -0.249023 0.455347
v -0.495848 -0.289523 0.455347
v -0.455347 -0.260885 0.483985
v -0.478730 -0.266140 0.478730
v -0.483985 -0.260885 0.455347
v -0.483985 -0.289523 0.483985
v 0.350665 -0.265803 0.310165
v 0.310165 -0.265803 0.350665
v 0.338803 -0.265803 0.338803
v -0.310165 -0.265803 0.350665
v -0.350665 -0.265803 0.310165
v -0.338803 -0.265803 0.338803
v 0.310165 -0.265804 -0.350665
v 0.350665 -0.265804 -0.310165
v 0.338803 -0.265804 -0.338803
v -0.350665 -0.265804 -0.310165
v -0.310165 -0.265804 -0.350665
v -0.338803 -0.265804 -0.338803
v -0.350665 -0.089239 -0.310165
v -0.310165 -0.089239 -0.350665
v -0.338803 -0.089239 -0.338803
v 0.310165 -0.089239 -0.350665
v 0.350665 -0.089239 -0.310165
v 0.338803 -0.089239 -0.338803
v 0.350665 -0.089238 0.310165
v 0.310165 -0.089238 0.350665
v 0.338803 -0.089238 0.338803
v -0.310165 -0.089238 0.350665
v -0.350665 -0.089238 0.310165
v -0.338803 -0.089238 0.338803
v 0.310165 -0.089239 -0.126248
v 0.350665 -0.129739 -0.207248
v 0.310165 -0.048738 -0.166748
v 0.338803 -0.101101 -0.166748
v 0.335734 -0.089239 -0.166748
v 0.338803 -0.089239 -0.178610
v 0.310165 -0.077376 -0.154886
v 0.310165 -0.089239 0.126248
v 0.310165 -0.048738 0.166748
v 0.350665 -0.129738 0.207248
v 0.310165 -0.077376 0.154886
v 0.335734 -0.089239 0.166748
v 0.338803 -0.089239 0.178610
v 0.338803 -0.101101 0.166748
v -0.310165 -0.089239 0.126248
v -0.350665 -0.129738 0.207248
v -0.310165 -0.048738 0.166748
v -0.338803 -0.101101 0.166748
v -0.335734 -0.089239 0.166748
v -0.338803 -0.089239 0.178610
v -0.310165 -0.077376 0.154885
v -0.310165 -0.089239 -0.126248
v -0.310165 -0.048738 -0.166748
v -0.350665 -0.129739 -0.207248
v -0.310165 -0.077376 -0.154886
v -0.335734 -0.089239 -0.166748
v -0.338803 -0.089239 -0.178610
v -0.338803 -0.101101 -0.166748
v -0.310165 0.104019 -0.350665
v -0.350665 0.104019 -0.310165
v -0.310165 0.144519 -0.310165
v -0.338803 0.104019 -0.338803
v -0.333548 0.127402 -0.333548
v -0.338803 0.132657 -0.310165
v -0.310165 0.132657 -0.338803
v 0.310165 0.104019 -0.350665
v 0.310165 0.144519 -0.310165
v 0.350665 0.104019 -0.310165
v 0.310165 0.132657 -0.338803
v 0.333548 0.127402 -0.333548
v 0.338803 0.132657 -0.310165
v 0.338803 0.104019 -0.338803
v 0.350665 0.104019 0.207248
v 0.310165 0.104019 0.166748
v 0.310165 0.144519 0.207248
v 0.338803 0.104019 0.178610
v 0.333548 0.127402 0.183865
v 0.310165 0.132657 0.178610
v 0.338803 0.132657 0.207248
v 0.350665 0.104019 0.310165
v 0.310165 0.144519 0.310165
v 0.310165 0.104019 0.350665
v 0.338803 0.132657 0.310165
v 0.333548 0.127402 0.333547
v 0.310165 0.132657 0.338803
v 0.338803 0.104019 0.338803
v -0.310165 0.104019 0.350665
v -0.310165 0.144519 0.310165
v -0.350665 0.104019 0.310165
v -0.310165 0.132657 0.338803
v -0.333548 0.127402 0.333547
v -0.338803 0.132657 0.310165
v -0.338803 0.104019 0.338803
v -0.350665 0.104019 -0.207248
v -0.310165 0.104019 -0.166748
v -0.310165 0.144519 -0.207248
v -0.338803 0.104019 -0.178610
v -0.333548 0.127402 -0.183866
v -0.310165 0.132657 -0.178610
v -0.338803 0.132657 -0.207248
v 0.350665 0.104019 -0.207248
v 0.310165 0.144519 -0.207248
v 0.310165 0.104019 -0.166748
v 0.338803 0.132657 -0.207248
v 0.333548 0.127402 -0.183866
v 0.310165 0.132657 -0.178610
v 0.338803 0.104019 -0.178610
v -0.350665 0.104019 0.207248
v -0.310165 0.144519 0.207248
v -0.310165 0.104019 0.166748
v -0.338803 0.132657 0.207248
v -0.333548 0.127402 0.183865
v -0.310165 0.132657 0.178610
v -0.338803 0.104019 0.178610
v -0.663167 0.140010 -0.105213
v -0.679496 0.102947 -0.064713
v -0.674713 0.113803 -0.093350
v -0.679496 0.102947 0.064713
v -0.663166 0.140010 0.105213
v -0.674713 0.113803 0.093350
v 0.070393 -0.183170 0.064712
v 0.033330 -0.166841 0.105212
v 0.017002 -0.203904 0.064712
v 0.059537 -0.178387 0.093350
v 0.045301 -0.197667 0.088095
v 0.021785 -0.193048 0.093350
v 0.047991 -0.204594 0.064712
v 0.070393 -0.183169 -0.064713
v 0.017002 -0.203904 -0.064713
v 0.033330 -0.166841 -0.105213
v 0.047991 -0.204594 -0.064713
v 0.045301 -0.197667 -0.088096
v 0.021784 -0.193048 -0.093350
v 0.059537 -0.178387 -0.093350
v -0.589924 0.306260 -0.064713
v -0.606252 0.269198 -0.105213
v -0.594706 0.295405 -0.093350
v -0.606251 0.269197 0.105213
v -0.589923 0.306260 0.064713
v -0.594706 0.295404 0.093350
v 0.127308 -0.053982 0.064712
v 0.106573 -0.000592 0.064712
v 0.090245 -0.037654 0.105212
v 0.127999 -0.022992 0.064712
v 0.121070 -0.025684 0.088095
v 0.101792 -0.011447 0.093350
v 0.116453 -0.049200 0.093350
v 0.127308 -0.053982 -0.064713
v 0.090245 -0.037654 -0.105213
v 0.106573 -0.000592 -0.064713
v 0.116453 -0.049200 -0.093350
v 0.121070 -0.025683 -0.088096
v 0.101792 -0.011447 -0.093350
v 0.127998 -0.022992 -0.064713
v -0.656813 0.066675 -0.087491
v -0.640485 0.103738 -0.127991
v -0.603422 0.087410 -0.087491
v -0.652030 0.077531 -0.116129
v -0.628514 0.072912 -0.110873
v -0.614278 0.092192 -0.116129
v -0.625823 0.065984 -0.087491
v -0.656813 0.066675 0.087490
v -0.603422 0.087409 0.087490
v -0.640484 0.103737 0.127990
v -0.625823 0.065984 0.087490
v -0.628514 0.072912 0.110873
v -0.614277 0.092192 0.116128
v -0.652030 0.077531 0.116128
v -0.547850 0.314003 -0.087491
v -0.527116 0.260612 -0.087491
v -0.564178 0.276941 -0.127991
v -0.526425 0.291602 -0.087491
v -0.533353 0.288912 -0.110873
v -0.537971 0.265395 -0.116129
v -0.552632 0.303148 -0.116129
v -0.547850 0.314003 0.087490
v -0.564178 0.276940 0.127990
v -0.527115 0.260612 0.087490
v -0.552631 0.303147 0.116128
v -0.533352 0.288912 0.110873
v -0.537970 0.265395 0.116128
v -0.526424 0.291602 0.087490
v -0.963076 0.201604 -0.087491
v -0.983811 0.254995 -0.087491
v -0.946748 0.238667 -0.127991
v -0.984502 0.224005 -0.087491
v -0.977574 0.226696 -0.110873
v -0.972955 0.250212 -0.116129
v -0.958295 0.212460 -0.116129
v -0.963076 0.201604 0.087490
v -0.946748 0.238666 0.127990
v -0.983811 0.254995 0.087490
v -0.958294 0.212459 0.116128
v -0.977573 0.226695 0.110873
v -0.972955 0.250212 0.116128
v -0.984501 0.224005 0.087490
v -0.854113 0.448932 -0.087491
v -0.870442 0.411870 -0.127991
v -0.907504 0.428198 -0.087491
v -0.858896 0.438077 -0.116129
v -0.882413 0.442694 -0.110873
v -0.896648 0.423415 -0.116129
v -0.885103 0.449622 -0.087491
v -0.854113 0.448931 0.087490
v -0.907504 0.428198 0.087490
v -0.870441 0.411869 0.127990
v -0.885102 0.449622 0.087490
v -0.882412 0.442694 0.110873
v -0.896648 0.423415 0.116128
v -0.858895 0.438076 0.116128
vn -0.9673 -0.1794 0.1794
vn -0.9673 0.1794 -0.1794
vn -0.9673 -0.1794 -0.1794
vn 0.9808 -0.0000 0.1951
vn 0.9976 0.0488 -0.0488
vn 0.9673 -0.1794 -0.1794
vn 0.9673 0.1794 0.1794
vn 0.9673 -0.1794 0.1794
vn 0.1794 -0.1794 0.9673
vn -0.1794 0.1794 0.9673
vn -0.1794 -0.1794 0.9673
vn 0.1794 0.9673 -0.1794
vn -0.1794 0.9673 0.1794
vn 0.1794 0.9673 0.1794
vn -0.1794 -0.9673 0.1794
vn 0.1794 -0.9673 -0.1794
vn 0.1794 -0.9673 0.1794
vn -1.0000 -0.0000 -0.0000
vn -0.9976 0.0488 0.0488
vn -0.1951 -0.0000 -0.9808
vn 0.1951 -0.0000 -0.9808
vn -0.9808 -0.0000 -0.1951
vn -0.9808 -0.0000 0.1951
vn -0.9976 0.0488 -0.0488
vn 0.9808 -0.0000 -0.1951
vn 0.9976 0.0488 0.0488
vn 1.0000 -0.0000 -0.0000
vn 0.1951 -0.0000 0.9808
vn -0.1951 -0.0000 0.9808
vn -0.1751 0.1105 -0.9783
vn 0.1794 0.1794 -0.9673
vn 0.1751 0.1105 -0.9783
vn -0.9673 0.1794 0.1794
vn 0.1751 0.1105 0.9783
vn -0.1751 0.1105 0.9783
vn -0.3954 -0.8975 -0.1951
vn -0.2258 -0.9575 0.1794
vn -0.3954 -0.8975 0.1951
vn 0.1751 0.9783 0.1105
vn -0.1751 0.9783 -0.1105
vn 0.1751 0.9783 -0.1105
vn 0.9673 0.1794 -0.1794
vn 0.0787 0.1785 -0.9808
vn 0.0918 -0.2365 -0.9673
vn -0.0787 -0.1785 -0.9808
vn -0.5541 -0.8129 -0.1794
vn -0.2258 -0.9575 -0.1794
vn 0.0918 -0.2365 0.9673
vn 0.0787 0.1785 0.9808
vn -0.0787 -0.1785 0.9808
vn 0.8129 -0.5541 -0.1794
vn 0.9575 -0.2258 0.1794
vn 0.8129 -0.5541 0.1794
vn 0.2365 0.0918 -0.9673
vn -0.2365 -0.0918 -0.9673
vn -0.0918 0.2365 -0.9673
vn 0.2365 0.0918 0.9673
vn -0.2365 -0.0918 0.9673
vn 0.5541 0.8129 -0.1794
vn 0.2258 0.9575 0.1794
vn 0.5541 0.8129 0.1794
vn -0.8129 0.5541 0.1794
vn -0.9575 0.2258 -0.1794
vn -0.9575 0.2258 0.1794
vn 0.3954 0.8975 0.1951
vn 0.3954 0.8975 -0.1951
vn -0.1794 -0.1794 -0.9673
vn -0.3251 -0.3251 -0.8881
vn -0.3791 -0.1369 -0.9152
vn -0.1794 -0.9673 -0.1794
vn -0.3251 -0.8881 -0.3251
vn -0.1369 -0.9152 -0.3791
vn -0.8881 -0.3251 -0.3251
vn -0.9152 -0.3791 -0.1369
vn 0.1794 -0.1794 -0.9673
vn 0.3251 -0.3251 -0.8881
vn 0.1369 -0.3791 -0.9152
vn 0.8881 -0.3251 -0.3251
vn 0.9152 -0.1369 -0.3791
vn 0.3251 -0.8881 -0.3251
vn 0.3791 -0.9152 -0.1369
vn -0.3251 -0.3251 0.8881
vn -0.1369 -0.3791 0.9152
vn -0.8881 -0.3251 0.3251
vn -0.9152 -0.1369 0.3791
vn -0.3251 -0.8881 0.3251
vn -0.3791 -0.9152 0.1369
vn 0.8881 -0.3251 0.3251
vn 0.9152 -0.3791 0.1369
vn 0.3251 -0.3251 0.8881
vn 0.3791 -0.1369 0.9152
vn 0.3251 -0.8881 0.3251
vn 0.1369 -0.9152 0.3791
vn -0.1794 0.1794 -0.9673
vn -0.3251 0.3251 -0.8881
vn -0.1369 0.3791 -0.9152
vn -0.8881 0.3251 -0.3251
vn -0.9152 0.1369 -0.3791
vn -0.1794 0.9673 -0.1794
vn -0.3251 0.8881 -0.3251
vn -0.3791 0.9152 -0.1369
vn 0.3251 0.3251 -0.8881
vn 0.3791 0.1369 -0.9152
vn 0.3251 0.8881 -0.3251
vn 0.1369 0.9152 -0.3791
vn 0.8881 0.3251 -0.3251
vn 0.9152 0.3791 -0.1369
vn 0.8881 0.3251 0.3251
vn 0.9152 0.1369 0.3791
vn 0.3251 0.8881 0.3251
vn 0.3791 0.9152 0.1369
vn 0.1794 0.1794 0.9673
vn 0.3251 0.3251 0.8881
vn 0.1369 0.3791 0.9152
vn -0.3251 0.3251 0.8881
vn -0.3791 0.1369 0.9152
vn -0.3251 0.8881 0.3251
vn -0.1369 0.9152 0.3791
vn -0.8881 0.3251 0.3251
vn -0.9152 0.3791 0.1369
vn 0.6266 0.4322 0.6485
vn 0.6892 0.5123 0.5123
vn 0.6786 0.6786 0.2811
vn 0.9504 0.0928 0.2970
vn 0.9504 0.2970 0.0928
vn 0.6266 0.6485 0.4322
vn 0.6786 0.2811 0.6786
vn 0.6892 0.5123 -0.5123
vn 0.6266 0.4322 -0.6485
vn 0.6786 0.6786 -0.2811
vn 0.6266 0.6485 -0.4322
vn 0.6786 0.2811 -0.6786
vn 0.9504 0.2970 -0.0928
vn 0.9504 0.0928 -0.2970
vn -0.6266 0.4322 -0.6485
vn -0.6892 0.5123 -0.5123
vn -0.6786 0.6786 -0.2811
vn -0.9504 0.0928 -0.2970
vn -0.9504 0.2970 -0.0928
vn -0.6266 0.6485 -0.4322
vn -0.6786 0.2811 -0.6786
vn -0.6892 0.5123 0.5123
vn -0.6266 0.4322 0.6485
vn -0.6786 0.6786 0.2811
vn -0.6266 0.6485 0.4322
vn -0.6786 0.2811 0.6786
vn -0.9504 0.2970 0.0928
vn -0.9504 0.0928 0.2970
vn 0.6816 -0.6555 0.3251
vn 0.6847 -0.7159 0.1369
vn 0.1664 -0.4285 0.8881
vn 0.2917 -0.2781 0.9152
vn -0.0606 -0.9438 0.3251
vn -0.2437 -0.8927 0.3791
vn 0.6816 -0.6555 -0.3251
vn 0.7823 -0.4942 -0.3791
vn -0.0606 -0.9437 -0.3251
vn -0.0221 -0.9903 -0.1369
vn 0.1664 -0.4285 -0.8881
vn -0.0276 -0.4021 -0.9152
vn 0.9437 -0.0606 0.3251
vn 0.8927 -0.2437 0.3791
vn 0.6555 0.6816 0.3251
vn 0.7159 0.6847 0.1369
vn 0.4285 0.1664 0.8881
vn 0.2781 0.2917 0.9152
vn 0.9575 -0.2258 -0.1794
vn 0.9438 -0.0606 -0.3251
vn 0.9903 -0.0221 -0.1369
vn 0.4285 0.1664 -0.8881
vn 0.4021 -0.0276 -0.9152
vn 0.6555 0.6816 -0.3251
vn 0.4942 0.7823 -0.3791
vn -0.0606 -0.9438 -0.3251
vn 0.6816 -0.6555 0.3250
vn 0.6555 0.6817 0.3251
vn 0.9438 -0.0606 0.3251
vn -0.6555 -0.6816 -0.3251
vn -0.4942 -0.7823 -0.3791
vn -0.9438 0.0606 -0.3251
vn -0.9903 0.0221 -0.1369
vn -0.4285 -0.1664 -0.8881
vn -0.4021 0.0276 -0.9152
vn -0.5541 -0.8129 0.1794
vn -0.6555 -0.6816 0.3250
vn -0.7159 -0.6847 0.1369
vn -0.4285 -0.1664 0.8881
vn -0.2781 -0.2917 0.9152
vn -0.9438 0.0606 0.3251
vn -0.8927 0.2437 0.3791
vn 0.2258 0.9575 -0.1794
vn 0.0606 0.9438 -0.3251
vn 0.0220 0.9903 -0.1369
vn -0.1664 0.4285 -0.8881
vn 0.0276 0.4021 -0.9152
vn -0.8129 0.5541 -0.1794
vn -0.6817 0.6555 -0.3251
vn -0.7823 0.4942 -0.3791
vn 0.0606 0.9438 0.3251
vn 0.2437 0.8927 0.3791
vn -0.6816 0.6555 0.3251
vn -0.6847 0.7159 0.1369
vn -0.0918 0.2365 0.9673
vn -0.1664 0.4285 0.8881
vn -0.2917 0.2781 0.9152
vn -0.1369 -0.3791 -0.9152
vn 0.1369 -0.9152 -0.3791
vn 0.9152 -0.3791 -0.1369
vn 0.3791 -0.9152 0.1369
vn 0.1369 -0.3791 0.9152
vn -0.1369 -0.9152 0.3791
vn -0.9152 -0.3791 0.1369
vn -0.3791 -0.9152 -0.1369
vn -0.1369 0.9152 -0.3791
vn 0.1369 0.3791 -0.9152
vn 0.3791 0.9152 -0.1369
vn 0.9152 0.3791 0.1369
vn 0.1369 0.9152 0.3791
vn -0.1369 0.3791 0.9152
vn -0.3791 0.9152 0.1369
vn -0.9152 0.3791 -0.1369
vn -0.3791 -0.1369 0.9152
vn -0.9152 0.1369 0.3791
vn -0.3791 0.1369 -0.9152
vn -0.9152 -0.1369 -0.3791
vn 0.3791 -0.1369 -0.9152
vn 0.9152 0.1369 -0.3791
vn 0.3791 0.1369 0.9152
vn 0.9152 -0.1369 0.3791
vn -0.3827 -0.0000 0.9239
vn -0.9239 -0.0000 0.3827
vn -0.3827 -0.0000 -0.9239
vn -0.9239 -0.0000 -0.3827
vn 0.3827 -0.0000 -0.9239
vn 0.9239 -0.0000 -0.3827
vn 0.3827 -0.0000 0.9239
vn 0.9239 -0.0000 0.3827
vn 0.3827 0.9239 -0.0000
vn -0.1751 0.9783 0.1105
vn -0.3827 0.9239 -0.0000
vn -0.0000 0.9239 -0.3827
vn -0.0000 0.3827 -0.9239
vn -0.0000 0.3827 0.9239
vn -0.0000 0.9239 0.3827
vn -0.0221 -0.9903 0.1369
vn 0.6847 -0.7159 -0.1369
vn -0.3725 -0.8455 0.3827
vn -0.1543 -0.3502 0.9239
vn -0.1543 -0.3502 -0.9239
vn -0.2437 -0.8927 -0.3791
vn -0.3725 -0.8455 -0.3827
vn 0.9903 -0.0221 0.1369
vn 0.7159 0.6847 -0.1369
vn 0.1543 0.3502 0.9239
vn 0.3725 0.8455 0.3827
vn 0.3725 0.8455 -0.3827
vn 0.1543 0.3502 -0.9239
vn 0.2917 -0.2781 -0.9152
vn 0.8927 -0.2437 -0.3791
vn 0.7823 -0.4942 0.3791
vn -0.7159 -0.6847 -0.1369
vn -0.9903 0.0220 0.1369
vn -0.6847 0.7159 -0.1369
vn 0.0221 0.9903 0.1369
vn -0.2917 0.2781 -0.9152
vn -0.4021 0.0276 0.9152
vn -0.7823 0.4942 0.3791
vn -0.2781 -0.2917 -0.9152
vn 0.2437 0.8927 -0.3791
vn 0.2781 0.2917 -0.9152
vn -0.0276 -0.4021 0.9152
vn -0.4942 -0.7823 0.3791
vn 0.4942 0.7823 0.3791
vn 0.0276 0.4021 0.9152
vn 0.5486 0.5912 0.5912
vn 0.9391 0.2430 0.2430
vn 0.5486 0.5912 -0.5912
vn 0.9391 0.2430 -0.2430
vn -0.5486 0.5912 -0.5912
vn -0.9391 0.2430 -0.2430
vn -0.5486 0.5912 0.5912
vn -0.9391 0.2430 0.2430
vn 0.4021 -0.0276 0.9152
vn -0.8927 0.2437 -0.3791
vt 0.017578 0.799805
vt 0.017578 0.824219
s 1
usemtl Atlas.002
f 20/1/1 34/1/2 7/1/3
f 61/2/4 94/2/5 79/2/4
f 13/1/6 47/1/7 26/1/8
f 27/1/9 54/1/10 19/1/11
f 41/1/12 55/1/13 48/1/14
f 21/1/15 14/1/16 28/1/17
f 1/2/18 108/2/19 2/2/18
f 71/2/20 76/2/21 67/2/21
f 70/2/22 108/2/19 73/2/22
f 65/2/23 100/2/24 1/2/18
f 68/2/25 86/2/26 3/2/27
f 62/2/28 82/2/29 64/2/29
f 101/2/30 128/2/31 93/2/32
f 74/2/20 120/2/31 76/2/21
f 121/2/12 150/2/13 156/2/14
f 73/2/22 148/2/33 114/2/2
f 87/2/34 149/2/10 107/2/35
f 129/2/12 142/2/13 135/2/14
f 170/1/36 177/1/37 172/1/38
f 85/2/39 99/2/40 92/2/41
f 77/2/25 155/2/7 86/2/26
f 79/2/4 127/2/42 134/2/7
f 80/2/28 141/2/10 82/2/29
f 3/2/27 94/2/5 4/2/27
f 83/2/23 162/2/2 100/2/24
f 190/1/43 184/1/44 169/1/45
f 216/2/37 237/2/46 209/2/47
f 176/1/48 192/1/49 173/1/50
f 182/1/51 195/1/52 175/1/53
f 225/2/54 239/2/55 252/2/56
f 231/2/57 245/2/58 218/2/48
f 211/2/51 232/2/52 217/2/53
f 223/2/59 258/2/60 230/2/61
f 259/2/62 238/2/63 246/2/64
f 193/1/65 204/1/59 189/1/66
f 5/1/67 9/1/68 11/1/69
f 6/1/70 9/1/71 8/1/72
f 7/1/3 9/1/73 10/1/74
f 12/1/75 16/1/76 18/1/77
f 13/1/6 16/1/78 15/1/79
f 14/1/16 16/1/80 17/1/81
f 19/1/11 23/1/82 25/1/83
f 20/1/1 23/1/84 22/1/85
f 21/1/15 23/1/86 24/1/87
f 26/1/8 30/1/88 32/1/89
f 27/1/9 30/1/90 29/1/91
f 28/1/17 30/1/92 31/1/93
f 33/1/94 37/1/95 39/1/96
f 34/1/2 37/1/97 36/1/98
f 35/1/99 37/1/100 38/1/101
f 40/1/31 44/1/102 46/1/103
f 41/1/12 44/1/104 43/1/105
f 42/1/42 44/1/106 45/1/107
f 47/1/7 51/1/108 53/1/109
f 48/1/14 51/1/110 50/1/111
f 49/1/112 51/1/113 52/1/114
f 54/1/10 58/1/115 60/1/116
f 55/1/13 58/1/117 57/1/118
f 56/1/33 58/1/119 59/1/120
f 88/2/121 91/2/122 85/2/123
f 90/2/124 88/2/125 86/2/26
f 91/2/122 90/2/126 87/2/127
f 95/2/128 98/2/129 92/2/130
f 97/2/131 95/2/128 93/2/132
f 98/2/133 97/2/134 94/2/5
f 102/2/135 105/2/136 99/2/137
f 104/2/138 102/2/139 100/2/24
f 105/2/136 104/2/140 101/2/141
f 109/2/142 112/2/143 106/2/144
f 111/2/145 109/2/142 107/2/146
f 112/2/147 111/2/148 108/2/19
f 113/2/94 117/2/95 119/2/96
f 114/2/2 117/2/97 116/2/98
f 115/2/99 117/2/100 118/2/101
f 120/2/31 124/2/102 126/2/103
f 121/2/12 124/2/104 123/2/105
f 122/2/42 124/2/106 125/2/107
f 127/2/42 131/2/106 133/2/107
f 128/2/31 131/2/102 130/2/103
f 129/2/12 131/2/104 132/2/105
f 134/2/7 138/2/108 140/2/109
f 135/2/14 138/2/110 137/2/111
f 136/2/112 138/2/113 139/2/114
f 141/2/10 145/2/115 147/2/116
f 142/2/13 145/2/117 144/2/118
f 143/2/33 145/2/119 146/2/120
f 148/2/33 152/2/119 154/2/120
f 149/2/10 152/2/115 151/2/116
f 150/2/13 152/2/117 153/2/118
f 155/2/7 159/2/108 161/2/109
f 156/2/14 159/2/110 158/2/111
f 157/2/112 159/2/113 160/2/114
f 162/2/2 166/2/97 168/2/98
f 163/2/99 166/2/100 165/2/101
f 164/2/94 166/2/95 167/2/96
f 175/1/53 179/1/149 181/1/150
f 176/1/48 179/1/151 178/1/152
f 177/1/37 179/1/153 180/1/154
f 182/1/51 186/1/155 188/1/156
f 183/1/47 186/1/157 185/1/158
f 184/1/44 186/1/159 187/1/160
f 195/1/52 199/1/161 201/1/162
f 196/1/61 199/1/163 198/1/164
f 197/1/57 199/1/165 200/1/166
f 202/1/167 206/1/168 208/1/169
f 203/1/54 206/1/170 205/1/171
f 204/1/59 206/1/172 207/1/173
f 209/2/47 213/2/174 215/2/158
f 210/2/44 213/2/159 212/2/160
f 211/2/51 213/2/155 214/2/156
f 216/2/37 220/2/153 222/2/154
f 217/2/53 220/2/175 219/2/150
f 218/2/48 220/2/151 221/2/152
f 223/2/59 227/2/172 229/2/173
f 224/2/167 227/2/168 226/2/169
f 225/2/54 227/2/170 228/2/171
f 230/2/61 234/2/176 236/2/164
f 231/2/57 234/2/165 233/2/166
f 232/2/52 234/2/177 235/2/162
f 237/2/46 241/2/178 243/2/179
f 238/2/63 241/2/180 240/2/181
f 239/2/55 241/2/182 242/2/183
f 244/2/184 248/2/185 250/2/186
f 245/2/58 248/2/187 247/2/188
f 246/2/64 248/2/189 249/2/190
f 251/2/191 255/2/192 257/2/193
f 252/2/56 255/2/194 254/2/195
f 253/2/196 255/2/197 256/2/198
f 258/2/60 262/2/199 264/2/200
f 259/2/62 262/2/201 261/2/202
f 260/2/203 262/2/204 263/2/205
f 12/1/75 8/1/206 5/1/67
f 18/1/207 6/1/70 8/1/72
f 26/1/8 17/1/208 13/1/6
f 32/1/209 14/1/16 17/1/81
f 19/1/11 31/1/210 27/1/9
f 25/1/211 28/1/17 31/1/93
f 7/1/3 24/1/212 20/1/1
f 10/1/213 21/1/15 24/1/87
f 41/1/12 39/1/214 35/1/99
f 43/1/215 33/1/94 39/1/96
f 48/1/14 45/1/216 41/1/12
f 50/1/217 42/1/42 45/1/107
f 55/1/13 52/1/218 48/1/14
f 57/1/219 49/1/112 52/1/114
f 35/1/99 59/1/220 55/1/13
f 38/1/221 56/1/33 59/1/120
f 54/1/10 22/1/222 19/1/11
f 60/1/223 20/1/1 22/1/85
f 5/1/67 36/1/224 33/1/94
f 11/1/225 34/1/2 36/1/98
f 40/1/31 15/1/226 12/1/75
f 46/1/227 13/1/6 15/1/79
f 27/1/9 53/1/228 49/1/112
f 29/1/229 47/1/7 53/1/109
f 82/2/29 66/2/230 64/2/29
f 84/2/231 65/2/23 66/2/231
f 71/2/20 75/2/232 74/2/20
f 72/2/233 73/2/22 75/2/233
f 76/2/21 69/2/234 67/2/21
f 78/2/235 68/2/25 69/2/235
f 62/2/28 81/2/236 80/2/28
f 63/2/237 79/2/4 81/2/237
f 92/2/41 88/2/238 85/2/39
f 98/2/133 86/2/26 88/2/125
f 106/2/239 102/2/240 99/2/40
f 112/2/147 100/2/24 102/2/139
f 92/2/41 105/2/241 95/2/241
f 105/2/242 93/2/32 95/2/242
f 107/2/35 91/2/243 87/2/34
f 91/2/244 106/2/239 85/2/39
f 121/2/12 119/2/214 115/2/99
f 123/2/215 113/2/94 119/2/96
f 135/2/14 133/2/216 129/2/12
f 137/2/217 127/2/42 133/2/107
f 142/2/13 139/2/218 135/2/14
f 144/2/219 136/2/112 139/2/114
f 115/2/99 154/2/220 150/2/13
f 118/2/221 148/2/33 154/2/120
f 156/2/14 125/2/216 121/2/12
f 158/2/217 122/2/42 125/2/107
f 163/2/99 146/2/220 142/2/13
f 165/2/221 143/2/33 146/2/120
f 164/2/94 132/2/215 128/2/31
f 167/2/214 129/2/12 132/2/105
f 150/2/13 160/2/218 156/2/14
f 153/2/219 157/2/112 160/2/114
f 114/2/2 75/2/233 73/2/22
f 116/2/224 74/2/20 75/2/232
f 77/2/25 126/2/227 122/2/42
f 78/2/234 120/2/31 126/2/103
f 162/2/2 104/2/138 100/2/24
f 168/2/224 101/2/30 104/2/232
f 127/2/42 97/2/134 130/2/227
f 130/2/103 93/2/32 128/2/31
f 141/2/10 84/2/230 82/2/29
f 147/2/223 83/2/23 84/2/231
f 107/2/35 151/2/116 111/2/230
f 111/2/148 148/2/33 108/2/19
f 87/2/34 161/2/228 157/2/112
f 90/2/124 155/2/7 161/2/109
f 80/2/28 140/2/228 136/2/112
f 81/2/237 134/2/7 140/2/109
f 183/1/47 181/1/245 177/1/37
f 185/1/246 175/1/53 181/1/150
f 177/1/37 174/1/247 172/1/38
f 174/1/248 176/1/48 173/1/50
f 184/1/44 171/1/249 169/1/45
f 187/1/250 170/1/36 171/1/251
f 202/1/167 198/1/252 195/1/52
f 208/1/253 196/1/61 198/1/164
f 192/1/49 200/1/166 194/1/254
f 194/1/255 196/1/61 193/1/65
f 204/1/59 191/1/256 189/1/66
f 191/1/257 203/1/54 190/1/43
f 203/1/54 188/1/258 184/1/44
f 205/1/259 182/1/51 188/1/156
f 195/1/52 178/1/260 175/1/53
f 178/1/152 197/1/57 176/1/48
f 217/2/53 215/2/246 211/2/51
f 219/2/245 209/2/47 215/2/158
f 230/2/61 226/2/253 223/2/59
f 236/2/252 224/2/167 226/2/169
f 211/2/51 228/2/259 224/2/167
f 228/2/171 210/2/44 225/2/54
f 232/2/52 221/2/260 217/2/53
f 221/2/152 231/2/57 218/2/48
f 237/2/46 250/2/186 240/2/261
f 250/2/262 238/2/63 240/2/181
f 259/2/62 257/2/263 253/2/196
f 261/2/264 251/2/191 257/2/193
f 239/2/55 256/2/265 252/2/56
f 256/2/198 238/2/63 253/2/196
f 260/2/203 249/2/266 245/2/58
f 263/2/267 246/2/64 249/2/190
f 237/2/46 212/2/250 209/2/47
f 243/2/268 210/2/44 212/2/160
f 251/2/191 229/2/173 254/2/269
f 229/2/270 252/2/56 254/2/195
f 245/2/58 222/2/271 218/2/48
f 247/2/272 216/2/37 222/2/154
f 230/2/61 264/2/200 233/2/273
f 264/2/274 231/2/57 233/2/166
f 5/1/67 40/1/31 12/1/75
f 20/1/1 56/1/33 34/1/2
f 61/2/4 4/2/27 94/2/5
f 13/1/6 42/1/42 47/1/7
f 27/1/9 49/1/112 54/1/10
f 41/1/12 35/1/99 55/1/13
f 21/1/15 6/1/70 14/1/16
f 1/2/18 100/2/24 108/2/19
f 71/2/20 74/2/20 76/2/21
f 70/2/22 2/2/18 108/2/19
f 65/2/23 83/2/23 100/2/24
f 68/2/25 77/2/25 86/2/26
f 62/2/28 80/2/28 82/2/29
f 101/2/30 164/2/94 128/2/31
f 74/2/20 113/2/94 120/2/31
f 121/2/12 115/2/99 150/2/13
f 73/2/22 108/2/19 148/2/33
f 87/2/34 157/2/112 149/2/10
f 129/2/12 163/2/99 142/2/13
f 170/1/36 183/1/47 177/1/37
f 85/2/39 106/2/239 99/2/40
f 77/2/25 122/2/42 155/2/7
f 79/2/4 94/2/5 127/2/42
f 80/2/28 136/2/112 141/2/10
f 3/2/27 86/2/26 94/2/5
f 83/2/23 143/2/33 162/2/2
f 190/1/43 203/1/54 184/1/44
f 216/2/37 244/2/184 237/2/46
f 176/1/48 197/1/57 192/1/49
f 182/1/51 202/1/167 195/1/52
f 225/2/54 210/2/44 239/2/55
f 231/2/57 260/2/203 245/2/58
f 211/2/51 224/2/167 232/2/52
f 223/2/59 251/2/191 258/2/60
f 259/2/62 253/2/196 238/2/63
f 193/1/65 196/1/61 204/1/59
f 5/1/67 8/1/206 9/1/68
f 6/1/70 10/1/213 9/1/71
f 7/1/3 11/1/225 9/1/73
f 12/1/75 15/1/226 16/1/76
f 13/1/6 17/1/208 16/1/78
f 14/1/16 18/1/207 16/1/80
f 19/1/11 22/1/222 23/1/82
f 20/1/1 24/1/212 23/1/84
f 21/1/15 25/1/211 23/1/86
f 26/1/8 29/1/229 30/1/88
f 27/1/9 31/1/210 30/1/90
f 28/1/17 32/1/209 30/1/92
f 33/1/94 36/1/224 37/1/95
f 34/1/2 38/1/221 37/1/97
f 35/1/99 39/1/214 37/1/100
f 40/1/31 43/1/215 44/1/102
f 41/1/12 45/1/216 44/1/104
f 42/1/42 46/1/227 44/1/106
f 47/1/7 50/1/217 51/1/108
f 48/1/14 52/1/218 51/1/110
f 49/1/112 53/1/228 51/1/113
f 54/1/10 57/1/219 58/1/115
f 55/1/13 59/1/220 58/1/117
f 56/1/33 60/1/223 58/1/119
f 88/2/121 89/2/275 91/2/122
f 90/2/124 89/2/276 88/2/125
f 91/2/122 89/2/275 90/2/126
f 95/2/128 96/2/277 98/2/129
f 97/2/131 96/2/277 95/2/128
f 98/2/133 96/2/278 97/2/134
f 102/2/135 103/2/279 105/2/136
f 104/2/138 103/2/280 102/2/139
f 105/2/136 103/2/279 104/2/140
f 109/2/142 110/2/281 112/2/143
f 111/2/145 110/2/281 109/2/142
f 112/2/147 110/2/282 111/2/148
f 113/2/94 116/2/224 117/2/95
f 114/2/2 118/2/221 117/2/97
f 115/2/99 119/2/214 117/2/100
f 120/2/31 123/2/215 124/2/102
f 121/2/12 125/2/216 124/2/104
f 122/2/42 126/2/227 124/2/106
f 127/2/42 130/2/227 131/2/106
f 128/2/31 132/2/215 131/2/102
f 129/2/12 133/2/216 131/2/104
f 134/2/7 137/2/217 138/2/108
f 135/2/14 139/2/218 138/2/110
f 136/2/112 140/2/228 138/2/113
f 141/2/10 144/2/219 145/2/115
f 142/2/13 146/2/220 145/2/117
f 143/2/33 147/2/223 145/2/119
f 148/2/33 151/2/223 152/2/119
f 149/2/10 153/2/219 152/2/115
f 150/2/13 154/2/220 152/2/117
f 155/2/7 158/2/217 159/2/108
f 156/2/14 160/2/218 159/2/110
f 157/2/112 161/2/228 159/2/113
f 162/2/2 165/2/221 166/2/97
f 163/2/99 167/2/214 166/2/100
f 164/2/94 168/2/224 166/2/95
f 175/1/53 178/1/260 179/1/149
f 176/1/48 180/1/271 179/1/151
f 177/1/37 181/1/245 179/1/153
f 182/1/51 185/1/246 186/1/155
f 183/1/47 187/1/250 186/1/157
f 184/1/44 188/1/258 186/1/159
f 195/1/52 198/1/252 199/1/161
f 196/1/61 200/1/273 199/1/163
f 197/1/57 201/1/283 199/1/165
f 202/1/167 205/1/259 206/1/168
f 203/1/54 207/1/270 206/1/170
f 204/1/59 208/1/253 206/1/172
f 209/2/47 212/2/250 213/2/174
f 210/2/44 214/2/258 213/2/159
f 211/2/51 215/2/246 213/2/155
f 216/2/37 219/2/245 220/2/153
f 217/2/53 221/2/260 220/2/175
f 218/2/48 222/2/271 220/2/151
f 223/2/59 226/2/253 227/2/172
f 224/2/167 228/2/259 227/2/168
f 225/2/54 229/2/270 227/2/170
f 230/2/61 233/2/273 234/2/176
f 231/2/57 235/2/283 234/2/165
f 232/2/52 236/2/252 234/2/177
f 237/2/46 240/2/261 241/2/178
f 238/2/63 242/2/284 241/2/180
f 239/2/55 243/2/268 241/2/182
f 244/2/184 247/2/272 248/2/185
f 245/2/58 249/2/266 248/2/187
f 246/2/64 250/2/262 248/2/189
f 251/2/191 254/2/269 255/2/192
f 252/2/56 256/2/265 255/2/194
f 253/2/196 257/2/263 255/2/197
f 258/2/60 261/2/264 262/2/199
f 259/2/62 263/2/267 262/2/201
f 260/2/203 264/2/274 262/2/204
f 12/1/75 18/1/77 8/1/206
f 18/1/207 14/1/16 6/1/70
f 26/1/8 32/1/89 17/1/208
f 32/1/209 28/1/17 14/1/16
f 19/1/11 25/1/83 31/1/210
f 25/1/211 21/1/15 28/1/17
f 7/1/3 10/1/74 24/1/212
f 10/1/213 6/1/70 21/1/15
f 41/1/12 43/1/105 39/1/214
f 43/1/215 40/1/31 33/1/94
f 48/1/14 50/1/111 45/1/216
f 50/1/217 47/1/7 42/1/42
f 55/1/13 57/1/118 52/1/218
f 57/1/219 54/1/10 49/1/112
f 35/1/99 38/1/101 59/1/220
f 38/1/221 34/1/2 56/1/33
f 54/1/10 60/1/116 22/1/222
f 60/1/223 56/1/33 20/1/1
f 5/1/67 11/1/69 36/1/224
f 11/1/225 7/1/3 34/1/2
f 40/1/31 46/1/103 15/1/226
f 46/1/227 42/1/42 13/1/6
f 27/1/9 29/1/91 53/1/228
f 29/1/229 26/1/8 47/1/7
f 82/2/29 84/2/230 66/2/230
f 84/2/231 83/2/23 65/2/23
f 71/2/20 72/2/232 75/2/232
f 72/2/233 70/2/22 73/2/22
f 76/2/21 78/2/234 69/2/234
f 78/2/235 77/2/25 68/2/25
f 62/2/28 63/2/236 81/2/236
f 63/2/237 61/2/4 79/2/4
f 92/2/41 98/2/238 88/2/238
f 98/2/133 94/2/5 86/2/26
f 106/2/239 112/2/240 102/2/240
f 112/2/147 108/2/19 100/2/24
f 92/2/41 99/2/40 105/2/241
f 105/2/242 101/2/30 93/2/32
f 107/2/35 109/2/243 91/2/243
f 91/2/244 109/2/244 106/2/239
f 121/2/12 123/2/105 119/2/214
f 123/2/215 120/2/31 113/2/94
f 135/2/14 137/2/111 133/2/216
f 137/2/217 134/2/7 127/2/42
f 142/2/13 144/2/118 139/2/218
f 144/2/219 141/2/10 136/2/112
f 115/2/99 118/2/101 154/2/220
f 118/2/221 114/2/2 148/2/33
f 156/2/14 158/2/111 125/2/216
f 158/2/217 155/2/7 122/2/42
f 163/2/99 165/2/101 146/2/220
f 165/2/221 162/2/2 143/2/33
f 164/2/94 167/2/96 132/2/215
f 167/2/214 163/2/99 129/2/12
f 150/2/13 153/2/118 160/2/218
f 153/2/219 149/2/10 157/2/112
f 114/2/2 116/2/98 75/2/233
f 116/2/224 113/2/94 74/2/20
f 77/2/25 78/2/235 126/2/227
f 78/2/234 76/2/21 120/2/31
f 162/2/2 168/2/98 104/2/138
f 168/2/224 164/2/94 101/2/30
f 127/2/42 94/2/5 97/2/134
f 130/2/103 97/2/234 93/2/32
f 141/2/10 147/2/116 84/2/230
f 147/2/223 143/2/33 83/2/23
f 107/2/35 149/2/10 151/2/116
f 111/2/148 151/2/223 148/2/33
f 87/2/34 90/2/236 161/2/228
f 90/2/124 86/2/26 155/2/7
f 80/2/28 81/2/236 140/2/228
f 81/2/237 79/2/4 134/2/7
f 183/1/47 185/1/158 181/1/245
f 185/1/246 182/1/51 175/1/53
f 177/1/37 180/1/154 174/1/247
f 174/1/248 180/1/271 176/1/48
f 184/1/44 187/1/160 171/1/249
f 187/1/250 183/1/47 170/1/36
f 202/1/167 208/1/169 198/1/252
f 208/1/253 204/1/59 196/1/61
f 192/1/49 197/1/57 200/1/166
f 194/1/255 200/1/273 196/1/61
f 204/1/59 207/1/173 191/1/256
f 191/1/257 207/1/270 203/1/54
f 203/1/54 205/1/171 188/1/258
f 205/1/259 202/1/167 182/1/51
f 195/1/52 201/1/162 178/1/260
f 178/1/152 201/1/283 197/1/57
f 217/2/53 219/2/150 215/2/246
f 219/2/245 216/2/37 209/2/47
f 230/2/61 236/2/164 226/2/253
f 236/2/252 232/2/52 224/2/167
f 211/2/51 214/2/156 228/2/259
f 228/2/171 214/2/258 210/2/44
f 232/2/52 235/2/162 221/2/260
f 221/2/152 235/2/283 231/2/57
f 237/2/46 244/2/184 250/2/186
f 250/2/262 246/2/64 238/2/63
f 259/2/62 261/2/202 257/2/263
f 261/2/264 258/2/60 251/2/191
f 239/2/55 242/2/183 256/2/265
f 256/2/198 242/2/284 238/2/63
f 260/2/203 263/2/205 249/2/266
f 263/2/267 259/2/62 246/2/64
f 237/2/46 243/2/179 212/2/250
f 243/2/268 239/2/55 210/2/44
f 251/2/191 223/2/59 229/2/173
f 229/2/270 225/2/54 252/2/56
f 245/2/58 247/2/188 222/2/271
f 247/2/272 244/2/184 216/2/37
f 230/2/61 258/2/60 264/2/200
f 264/2/274 260/2/203 231/2/57
f 5/1/67 33/1/94 40/1/31
