# Blender 4.4.1
# www.blender.org
mtllib blade.mtl
o 円
v 0.371150 0.946432 -0.153392
v -0.308600 0.847873 -0.147665
v -0.324037 0.963580 -0.153392
v -0.781404 0.451144 -0.147665
v -0.867604 0.529858 -0.153392
v -0.888580 -0.156681 -0.147665
v -1.005209 -0.151791 -0.153392
v -0.579979 -0.691192 -0.147665
v -0.672466 -0.762415 -0.153392
v 0.000000 -0.902287 -0.147665
v -0.025068 -1.016296 -0.153392
v 0.579979 -0.691192 -0.147665
v 0.634059 -0.794641 -0.153392
v 0.888580 -0.156681 -0.147665
v 0.996503 -0.201165 -0.153392
v 0.781404 0.451144 -0.147665
v 0.892672 0.486438 -0.153392
v 0.308600 0.847873 -0.147665
v 0.371150 0.946432 0.104819
v -0.308600 0.847873 0.099093
v -0.324037 0.963580 0.104819
v -0.781404 0.451144 0.099093
v -0.867604 0.529858 0.104819
v -0.888580 -0.156681 0.099093
v -1.005209 -0.151791 0.104819
v -0.579979 -0.691192 0.099093
v -0.672466 -0.762415 0.104819
v 0.000000 -0.902287 0.099093
v -0.025068 -1.016296 0.104819
v 0.579979 -0.691192 0.099093
v 0.634059 -0.794641 0.104819
v 0.888580 -0.156681 0.099093
v 0.996503 -0.201165 0.104819
v 0.781404 0.451144 0.099093
v 0.892672 0.486438 0.104819
v 0.308600 0.847873 0.099093
vn -0.0000 -0.0000 -1.0000
vn -0.0000 -0.0000 1.0000
vn 0.6743 0.7384 -0.0000
vn -0.8862 -0.4633 -0.0000
vn -0.9995 0.0305 -0.0000
vn 0.9288 -0.3706 -0.0000
vn 0.0419 0.9991 -0.0000
vn -0.3811 -0.9245 -0.0000
vn -0.7853 -0.6191 -0.0000
vn 0.9497 0.3132 -0.0000
vn -0.6101 0.7923 -0.0000
vn -0.1435 0.9897 -0.0000
vn 0.3024 -0.9532 -0.0000
vn -0.2036 -0.9790 -0.0000
vn 0.9912 0.1322 -0.0000
vn 0.5262 0.8504 -0.0000
vn -0.9767 0.2147 -0.0000
vn -0.7461 0.6659 -0.0000
vn 0.8443 -0.5358 -0.0000
vn 0.4733 -0.8809 -0.0000
vn -0.0000 -0.0580 -0.9983
vn -0.0373 -0.0444 -0.9983
vn -0.0571 -0.0101 -0.9983
vn -0.0502 0.0290 -0.9983
vn -0.0198 0.0545 -0.9983
vn 0.0198 0.0545 -0.9983
vn 0.0502 0.0290 -0.9983
vn 0.0571 -0.0101 -0.9983
vn 0.0373 -0.0444 -0.9983
vn 0.0373 -0.0444 0.9983
vn 0.0571 -0.0101 0.9983
vn 0.0502 0.0290 0.9983
vn 0.0198 0.0545 0.9983
vn -0.0198 0.0545 0.9983
vn -0.0502 0.0290 0.9983
vn -0.0571 -0.0101 0.9983
vn -0.0373 -0.0444 0.9983
vn -0.0000 -0.0580 0.9983
vt 0.078939 0.111162
vt 0.367245 0.052962
vt 0.474626 0.326781
vt 0.586192 0.102519
vt 0.877017 0.058603
vt 0.970767 0.337384
vt 0.809869 0.573186
vt 0.830391 0.509165
vt 0.830391 0.571734
vt 0.758103 0.573186
vt 0.785300 0.509165
vt 0.785300 0.571734
vt 0.001452 0.507713
vt 0.065473 0.680887
vt -0.000000 0.680887
vt 0.263342 0.507713
vt 0.327363 0.667738
vt 0.261890 0.667738
vt 0.647026 0.573186
vt 0.675368 0.509165
vt 0.675368 0.571734
vt 0.675368 0.573186
vt 0.703710 0.509165
vt 0.703710 0.571734
vt 0.327363 0.652278
vt 0.391383 0.507713
vt 0.392835 0.652278
vt 0.197870 0.507713
vt 0.261890 0.674480
vt 0.196418 0.674480
vt 0.730907 0.573186
vt 0.758103 0.509165
vt 0.758103 0.571734
vt 0.066925 0.507713
vt 0.130945 0.680887
vt 0.703710 0.573186
vt 0.730907 0.509165
vt 0.730907 0.571734
vt 0.132397 0.507713
vt 0.196418 0.680887
vt 0.589253 0.573186
vt 0.618684 0.509165
vt 0.618684 0.571734
vt 0.525232 0.507713
vt 0.589253 0.628466
vt 0.523780 0.628466
vt 0.618684 0.573186
vt 0.647026 0.509165
vt 0.647026 0.571734
vt 0.394287 0.507713
vt 0.458308 0.652278
vt 0.785300 0.573186
vt 0.809868 0.509165
vt 0.809868 0.571734
vt 0.459760 0.507713
vt 0.523780 0.652278
vt 0.086192 0.405194
vt -0.000000 0.253857
vt 0.029056 0.259498
vt 0.060307 0.088163
vt 0.213011 0.000000
vt 0.212501 0.029594
vt 0.386659 0.030619
vt 0.500000 0.165693
vt 0.470766 0.170330
vt 0.500000 0.342020
vt 0.386659 0.477094
vt 0.377017 0.449110
vt 0.213011 0.507713
vt 0.223612 0.480078
vt 0.060307 0.419550
vt 0.578940 0.396551
vt 0.560307 0.419550
vt 0.529056 0.248215
vt 0.500000 0.253857
vt 0.560307 0.088164
vt 0.723612 0.027635
vt 0.713011 0.000000
vt 0.886659 0.030619
vt 0.974626 0.180932
vt 1.000000 0.165693
vt 1.000000 0.342020
vt 0.867245 0.454752
vt 0.886659 0.477094
vt 0.712501 0.478119
vt 0.713011 0.507713
vt 0.809869 0.507713
vt 0.758103 0.507713
vt 0.064021 0.507713
vt 0.325911 0.507713
vt 0.647026 0.507713
vt 0.675368 0.507713
vt 0.328815 0.507713
vt 0.260438 0.507713
vt 0.730907 0.507713
vt 0.129493 0.507713
vt 0.703710 0.507713
vt 0.194966 0.507713
vt 0.589253 0.507713
vt 0.587801 0.507713
vt 0.618684 0.507713
vt 0.456856 0.507713
vt 0.785300 0.507713
vt 0.522328 0.507713
s 1
usemtl マテリアル.002
f 16/1/1 12/2/1 8/3/1
f 24/4/2 28/5/2 32/6/2
f 5/7/3 22/8/3 4/9/3
f 13/10/4 30/11/4 12/12/4
f 6/13/5 23/14/5 5/15/5
f 14/16/6 31/17/6 13/18/6
f 7/19/7 24/20/7 6/21/7
f 15/22/8 32/23/8 14/24/8
f 7/25/9 26/26/9 25/27/9
f 16/28/10 33/29/10 15/30/10
f 9/31/11 26/32/11 8/33/11
f 2/34/12 19/35/12 1/14/12
f 17/36/13 34/37/13 16/38/13
f 10/39/14 27/40/14 9/35/14
f 3/41/15 20/42/15 2/43/15
f 18/44/16 35/45/16 17/46/16
f 11/47/17 28/48/17 10/49/17
f 4/50/18 21/51/18 3/27/18
f 1/52/19 36/53/19 18/54/19
f 12/55/20 29/56/20 11/51/20
f 2/57/21 1/58/21 18/59/21
f 18/59/22 17/60/22 16/1/22
f 16/1/23 15/61/23 14/62/23
f 14/62/24 13/63/24 12/2/24
f 12/2/25 11/64/25 10/65/25
f 10/65/26 9/66/26 8/3/26
f 8/3/27 7/67/27 6/68/27
f 6/68/28 5/69/28 4/70/28
f 4/70/29 3/71/29 2/57/29
f 2/57/1 18/59/1 16/1/1
f 16/1/1 14/62/1 12/2/1
f 12/2/1 10/65/1 8/3/1
f 8/3/1 6/68/1 16/1/1
f 6/68/1 4/70/1 16/1/1
f 4/70/1 2/57/1 16/1/1
f 20/72/30 21/73/30 22/74/30
f 22/74/31 23/75/31 24/4/31
f 24/4/32 25/76/32 26/77/32
f 26/77/33 27/78/33 28/5/33
f 28/5/34 29/79/34 30/80/34
f 30/80/35 31/81/35 32/6/35
f 32/6/36 33/82/36 34/83/36
f 34/83/37 35/84/37 36/85/37
f 36/85/38 19/86/38 20/72/38
f 20/72/2 22/74/2 36/85/2
f 22/74/2 24/4/2 36/85/2
f 24/4/2 26/77/2 28/5/2
f 28/5/2 30/80/2 32/6/2
f 32/6/2 34/83/2 24/4/2
f 34/83/2 36/85/2 24/4/2
f 5/7/3 23/87/3 22/8/3
f 13/10/4 31/88/4 30/11/4
f 6/13/5 24/89/5 23/14/5
f 14/16/6 32/90/6 31/17/6
f 7/19/7 25/91/7 24/20/7
f 15/22/8 33/92/8 32/23/8
f 7/25/9 8/93/9 26/26/9
f 16/28/10 34/94/10 33/29/10
f 9/31/11 27/95/11 26/32/11
f 2/34/12 20/96/12 19/35/12
f 17/36/13 35/97/13 34/37/13
f 10/39/14 28/98/14 27/40/14
f 3/41/15 21/99/15 20/42/15
f 18/44/16 36/100/16 35/45/16
f 11/47/17 29/101/17 28/48/17
f 4/50/18 22/102/18 21/51/18
f 1/52/19 19/103/19 36/53/19
f 12/55/20 30/104/20 29/56/20
