# Blender 4.4.1
# www.blender.org
mtllib PushButton.mtl
o Button_Cube.509
v 0.455347 -0.467615 -0.495848
v 0.495848 -0.467615 -0.455347
v 0.455347 -0.508115 -0.455347
v 0.483985 -0.467615 -0.483985
v 0.478730 -0.490998 -0.478730
v 0.483985 -0.496252 -0.455347
v 0.455347 -0.496252 -0.483985
v -0.455347 -0.467615 -0.495848
v -0.455347 -0.508115 -0.455347
v -0.495848 -0.467615 -0.455347
v -0.455347 -0.496252 -0.483985
v -0.478730 -0.490998 -0.478730
v -0.483985 -0.496252 -0.455347
v -0.483985 -0.467615 -0.483985
v 0.455347 -0.467615 0.495848
v 0.455347 -0.508115 0.455347
v 0.495848 -0.467615 0.455347
v 0.455347 -0.496252 0.483985
v 0.478730 -0.490998 0.478730
v 0.483985 -0.496252 0.455347
v 0.483985 -0.467615 0.483985
v -0.495848 -0.467615 0.455347
v -0.455347 -0.508115 0.455347
v -0.455347 -0.467615 0.495848
v -0.483985 -0.496252 0.455347
v -0.478730 -0.490998 0.478730
v -0.455347 -0.496252 0.483985
v -0.483985 -0.467615 0.483985
v 0.455347 -0.274404 -0.495848
v 0.455347 -0.233904 -0.455347
v 0.495848 -0.274404 -0.455347
v 0.455347 -0.245766 -0.483985
v 0.478730 -0.251021 -0.478730
v 0.483985 -0.245766 -0.455347
v 0.483985 -0.274404 -0.483985
v -0.455347 -0.274404 -0.495848
v -0.495848 -0.274404 -0.455347
v -0.455347 -0.233904 -0.455347
v -0.483985 -0.274404 -0.483985
v -0.478730 -0.251021 -0.478730
v -0.483985 -0.245766 -0.455347
v -0.455347 -0.245766 -0.483985
v -0.495848 -0.274404 0.455347
v -0.455347 -0.274404 0.495848
v -0.455347 -0.233904 0.455347
v -0.483985 -0.274404 0.483985
v -0.478730 -0.251021 0.478730
v -0.455347 -0.245766 0.483985
v -0.483985 -0.245766 0.455347
v 0.455347 -0.274404 0.495848
v 0.495848 -0.274404 0.455347
v 0.455347 -0.233904 0.455347
v 0.483985 -0.274404 0.483985
v 0.478730 -0.251021 0.478730
v 0.483985 -0.245766 0.455347
v 0.455347 -0.245766 0.483985
v 0.348787 -0.046284 0.348787
v 0.348787 -0.086784 0.389287
v 0.389287 -0.086784 0.348787
v 0.348787 -0.058146 0.377425
v 0.372169 -0.063401 0.372169
v 0.377425 -0.086784 0.377425
v 0.377425 -0.058146 0.348787
v -0.389287 -0.086784 0.348787
v -0.348787 -0.086784 0.389287
v -0.348787 -0.046284 0.348787
v -0.377425 -0.086784 0.377425
v -0.372169 -0.063401 0.372169
v -0.348787 -0.058146 0.377425
v -0.377425 -0.058146 0.348787
v -0.348787 -0.086784 -0.389287
v -0.389287 -0.086784 -0.348787
v -0.348787 -0.046284 -0.348787
v -0.377425 -0.086784 -0.377425
v -0.372169 -0.063401 -0.372170
v -0.377425 -0.058146 -0.348787
v -0.348787 -0.058146 -0.377425
v 0.348787 -0.086784 -0.389287
v 0.348787 -0.046284 -0.348787
v 0.389287 -0.086784 -0.348787
v 0.348787 -0.058146 -0.377425
v 0.372169 -0.063401 -0.372170
v 0.377425 -0.058146 -0.348787
v 0.377425 -0.086784 -0.377425
v -0.348787 -0.261565 0.389287
v -0.389287 -0.261565 0.348787
v -0.377425 -0.261565 0.377425
v 0.389287 -0.261565 0.348787
v 0.348787 -0.261565 0.389287
v 0.377425 -0.261565 0.377425
v -0.389287 -0.261565 -0.348787
v -0.348787 -0.261565 -0.389287
v -0.377425 -0.261565 -0.377425
v 0.348787 -0.261565 -0.389287
v 0.389287 -0.261565 -0.348787
v 0.377425 -0.261565 -0.377425
vn 0.9673 0.1794 -0.1794
vn 0.9673 -0.1794 0.1794
vn 0.9673 -0.1794 -0.1794
vn 0.1794 0.9673 0.1794
vn -0.1794 0.9673 -0.1794
vn -0.1794 0.9673 0.1794
vn -0.9673 0.1794 0.1794
vn -0.9673 -0.1794 -0.1794
vn -0.9673 -0.1794 0.1794
vn 0.1794 0.1794 0.9673
vn -0.1794 -0.1794 0.9673
vn 0.1794 -0.1794 0.9673
vn -0.1794 -0.9673 -0.1794
vn 0.1794 -0.9673 0.1794
vn -0.1794 -0.9673 0.1794
vn 0.9808 -0.0000 0.1951
vn 0.9808 -0.0000 -0.1951
vn -0.1794 0.1794 -0.9673
vn 0.1951 -0.0000 -0.9808
vn -0.1951 -0.0000 -0.9808
vn -0.9808 -0.0000 -0.1951
vn -0.9808 -0.0000 0.1951
vn -0.1951 -0.0000 0.9808
vn 0.1951 -0.0000 0.9808
vn 0.1794 -0.1794 -0.9673
vn 0.3251 -0.3251 -0.8881
vn 0.1369 -0.3791 -0.9152
vn 0.8881 -0.3251 -0.3251
vn 0.9152 -0.1369 -0.3791
vn 0.1794 -0.9673 -0.1794
vn 0.3251 -0.8881 -0.3251
vn 0.3791 -0.9152 -0.1368
vn -0.1794 -0.1794 -0.9673
vn -0.3251 -0.3251 -0.8881
vn -0.3791 -0.1369 -0.9152
vn -0.3251 -0.8881 -0.3251
vn -0.1368 -0.9152 -0.3791
vn -0.8881 -0.3251 -0.3251
vn -0.9152 -0.3791 -0.1369
vn 0.3251 -0.3251 0.8881
vn 0.3791 -0.1369 0.9152
vn 0.3251 -0.8881 0.3251
vn 0.1368 -0.9152 0.3791
vn 0.8881 -0.3251 0.3251
vn 0.9152 -0.3791 0.1369
vn -0.8881 -0.3251 0.3251
vn -0.9152 -0.1369 0.3791
vn -0.3251 -0.8881 0.3251
vn -0.3791 -0.9152 0.1368
vn -0.3251 -0.3251 0.8881
vn -0.1369 -0.3791 0.9152
vn 0.1794 0.1794 -0.9673
vn 0.3251 0.3251 -0.8881
vn 0.3791 0.1369 -0.9152
vn 0.1794 0.9673 -0.1794
vn 0.3251 0.8881 -0.3251
vn 0.1369 0.9152 -0.3791
vn 0.8881 0.3251 -0.3251
vn 0.9152 0.3791 -0.1369
vn -0.3251 0.3251 -0.8881
vn -0.1369 0.3791 -0.9152
vn -0.9673 0.1794 -0.1794
vn -0.8881 0.3251 -0.3251
vn -0.9152 0.1369 -0.3791
vn -0.3251 0.8881 -0.3251
vn -0.3791 0.9152 -0.1369
vn -0.8881 0.3251 0.3251
vn -0.9152 0.3791 0.1369
vn -0.1794 0.1794 0.9673
vn -0.3251 0.3251 0.8881
vn -0.3791 0.1369 0.9152
vn -0.3251 0.8881 0.3251
vn -0.1369 0.9152 0.3791
vn 0.3251 0.3251 0.8881
vn 0.1369 0.3791 0.9152
vn 0.9673 0.1794 0.1794
vn 0.8881 0.3251 0.3251
vn 0.9152 0.1369 0.3791
vn 0.3251 0.8881 0.3251
vn 0.3791 0.9152 0.1369
vn 0.1368 -0.9152 -0.3791
vn -0.1369 -0.3791 -0.9152
vn -0.3791 -0.9152 -0.1368
vn -0.9152 -0.3791 0.1369
vn -0.1368 -0.9152 0.3791
vn 0.1369 -0.3791 0.9152
vn 0.3791 -0.9152 0.1368
vn 0.9152 -0.3791 -0.1369
vn 0.1369 0.3791 -0.9152
vn -0.1369 0.9152 -0.3791
vn -0.9152 0.3791 -0.1369
vn -0.3791 0.9152 0.1369
vn -0.1369 0.3791 0.9152
vn 0.1369 0.9152 0.3791
vn 0.9152 0.3791 0.1369
vn 0.3791 0.9152 -0.1369
vn 0.9152 -0.1369 0.3791
vn 0.3791 0.1369 0.9152
vn 0.9152 0.1369 -0.3791
vn 0.3791 -0.1369 -0.9152
vn -0.9152 -0.1369 -0.3791
vn -0.3791 0.1369 -0.9152
vn -0.9152 0.1369 0.3791
vn -0.3791 -0.1369 0.9152
vn -0.3827 -0.0000 0.9239
vn -0.9239 -0.0000 -0.3827
vn -0.3827 -0.0000 -0.9239
vn 0.9239 -0.0000 0.3827
vn 0.3827 -0.0000 0.9239
vn 0.3827 -0.0000 -0.9239
vn -0.9239 -0.0000 0.3827
vn 0.9239 -0.0000 -0.3827
vt 0.010742 0.799805
vt 0.045899 0.982422
s 1
usemtl Atlas
f 31/1/1 17/1/2 2/1/3
f 57/2/4 73/2/5 66/2/6
f 43/1/7 10/1/8 22/1/9
f 50/1/10 24/1/11 15/1/12
f 52/1/4 38/1/5 45/1/6
f 9/1/13 16/1/14 23/1/15
f 80/2/1 88/2/16 95/2/17
f 71/2/18 94/2/19 92/2/20
f 64/2/7 91/2/21 86/2/22
f 58/2/10 85/2/23 89/2/24
f 1/1/25 5/1/26 7/1/27
f 2/1/3 5/1/28 4/1/29
f 3/1/30 5/1/31 6/1/32
f 8/1/33 12/1/34 14/1/35
f 9/1/13 12/1/36 11/1/37
f 10/1/8 12/1/38 13/1/39
f 15/1/12 19/1/40 21/1/41
f 16/1/14 19/1/42 18/1/43
f 17/1/2 19/1/44 20/1/45
f 22/1/9 26/1/46 28/1/47
f 23/1/15 26/1/48 25/1/49
f 24/1/11 26/1/50 27/1/51
f 29/1/52 33/1/53 35/1/54
f 30/1/55 33/1/56 32/1/57
f 31/1/1 33/1/58 34/1/59
f 36/1/18 40/1/60 42/1/61
f 37/1/62 40/1/63 39/1/64
f 38/1/5 40/1/65 41/1/66
f 43/1/7 47/1/67 49/1/68
f 44/1/69 47/1/70 46/1/71
f 45/1/6 47/1/72 48/1/73
f 50/1/10 54/1/74 56/1/75
f 51/1/76 54/1/77 53/1/78
f 52/1/4 54/1/79 55/1/80
f 57/2/4 61/2/79 63/2/80
f 58/2/10 61/2/74 60/2/75
f 59/2/76 61/2/77 62/2/78
f 64/2/7 68/2/67 70/2/68
f 65/2/69 68/2/70 67/2/71
f 66/2/6 68/2/72 69/2/73
f 71/2/18 75/2/60 77/2/61
f 72/2/62 75/2/63 74/2/64
f 73/2/5 75/2/65 76/2/66
f 78/2/52 82/2/53 84/2/54
f 79/2/55 82/2/56 81/2/57
f 80/2/1 82/2/58 83/2/59
f 9/1/13 7/1/81 3/1/30
f 11/1/82 1/1/25 7/1/27
f 23/1/15 13/1/83 9/1/13
f 25/1/84 10/1/8 13/1/39
f 16/1/14 27/1/85 23/1/15
f 18/1/86 24/1/11 27/1/51
f 3/1/30 20/1/87 16/1/14
f 6/1/88 17/1/2 20/1/45
f 36/1/18 32/1/89 29/1/52
f 42/1/90 30/1/55 32/1/57
f 43/1/7 41/1/91 37/1/62
f 49/1/92 38/1/5 41/1/66
f 50/1/10 48/1/93 44/1/69
f 56/1/94 45/1/6 48/1/73
f 31/1/1 55/1/95 51/1/76
f 34/1/96 52/1/4 55/1/80
f 51/1/76 21/1/97 17/1/2
f 53/1/98 15/1/12 21/1/41
f 2/1/3 35/1/99 31/1/1
f 4/1/100 29/1/52 35/1/54
f 37/1/62 14/1/101 10/1/8
f 39/1/102 8/1/33 14/1/35
f 22/1/9 46/1/103 43/1/7
f 28/1/104 44/1/69 46/1/71
f 86/2/22 67/2/103 64/2/7
f 87/2/105 65/2/69 67/2/71
f 58/2/10 69/2/93 65/2/69
f 60/2/94 66/2/6 69/2/73
f 72/2/62 93/2/106 91/2/21
f 74/2/102 92/2/20 93/2/107
f 59/2/76 90/2/108 88/2/16
f 62/2/98 89/2/24 90/2/109
f 95/2/17 84/2/99 80/2/1
f 96/2/110 78/2/52 84/2/54
f 64/2/7 76/2/91 72/2/62
f 70/2/92 73/2/5 76/2/66
f 80/2/1 63/2/95 59/2/76
f 83/2/96 57/2/4 63/2/80
f 71/2/18 81/2/89 78/2/52
f 77/2/90 79/2/55 81/2/57
f 36/1/18 1/1/25 8/1/33
f 31/1/1 51/1/76 17/1/2
f 57/2/4 79/2/55 73/2/5
f 43/1/7 37/1/62 10/1/8
f 50/1/10 44/1/69 24/1/11
f 52/1/4 30/1/55 38/1/5
f 9/1/13 3/1/30 16/1/14
f 80/2/1 59/2/76 88/2/16
f 71/2/18 78/2/52 94/2/19
f 64/2/7 72/2/62 91/2/21
f 58/2/10 65/2/69 85/2/23
f 1/1/25 4/1/100 5/1/26
f 2/1/3 6/1/88 5/1/28
f 3/1/30 7/1/81 5/1/31
f 8/1/33 11/1/82 12/1/34
f 9/1/13 13/1/83 12/1/36
f 10/1/8 14/1/101 12/1/38
f 15/1/12 18/1/86 19/1/40
f 16/1/14 20/1/87 19/1/42
f 17/1/2 21/1/97 19/1/44
f 22/1/9 25/1/84 26/1/46
f 23/1/15 27/1/85 26/1/48
f 24/1/11 28/1/104 26/1/50
f 29/1/52 32/1/89 33/1/53
f 30/1/55 34/1/96 33/1/56
f 31/1/1 35/1/99 33/1/58
f 36/1/18 39/1/102 40/1/60
f 37/1/62 41/1/91 40/1/63
f 38/1/5 42/1/90 40/1/65
f 43/1/7 46/1/103 47/1/67
f 44/1/69 48/1/93 47/1/70
f 45/1/6 49/1/92 47/1/72
f 50/1/10 53/1/98 54/1/74
f 51/1/76 55/1/95 54/1/77
f 52/1/4 56/1/94 54/1/79
f 57/2/4 60/2/94 61/2/79
f 58/2/10 62/2/98 61/2/74
f 59/2/76 63/2/95 61/2/77
f 64/2/7 67/2/103 68/2/67
f 65/2/69 69/2/93 68/2/70
f 66/2/6 70/2/92 68/2/72
f 71/2/18 74/2/102 75/2/60
f 72/2/62 76/2/91 75/2/63
f 73/2/5 77/2/90 75/2/65
f 78/2/52 81/2/89 82/2/53
f 79/2/55 83/2/96 82/2/56
f 80/2/1 84/2/99 82/2/58
f 9/1/13 11/1/37 7/1/81
f 11/1/82 8/1/33 1/1/25
f 23/1/15 25/1/49 13/1/83
f 25/1/84 22/1/9 10/1/8
f 16/1/14 18/1/43 27/1/85
f 18/1/86 15/1/12 24/1/11
f 3/1/30 6/1/32 20/1/87
f 6/1/88 2/1/3 17/1/2
f 36/1/18 42/1/61 32/1/89
f 42/1/90 38/1/5 30/1/55
f 43/1/7 49/1/68 41/1/91
f 49/1/92 45/1/6 38/1/5
f 50/1/10 56/1/75 48/1/93
f 56/1/94 52/1/4 45/1/6
f 31/1/1 34/1/59 55/1/95
f 34/1/96 30/1/55 52/1/4
f 51/1/76 53/1/78 21/1/97
f 53/1/98 50/1/10 15/1/12
f 2/1/3 4/1/29 35/1/99
f 4/1/100 1/1/25 29/1/52
f 37/1/62 39/1/64 14/1/101
f 39/1/102 36/1/18 8/1/33
f 22/1/9 28/1/47 46/1/103
f 28/1/104 24/1/11 44/1/69
f 86/2/22 87/2/111 67/2/103
f 87/2/105 85/2/23 65/2/69
f 58/2/10 60/2/75 69/2/93
f 60/2/94 57/2/4 66/2/6
f 72/2/62 74/2/64 93/2/106
f 74/2/102 71/2/18 92/2/20
f 59/2/76 62/2/78 90/2/108
f 62/2/98 58/2/10 89/2/24
f 95/2/17 96/2/112 84/2/99
f 96/2/110 94/2/19 78/2/52
f 64/2/7 70/2/68 76/2/91
f 70/2/92 66/2/6 73/2/5
f 80/2/1 83/2/59 63/2/95
f 83/2/96 79/2/55 57/2/4
f 71/2/18 77/2/61 81/2/89
f 77/2/90 73/2/5 79/2/55
f 36/1/18 29/1/52 1/1/25
