# Blender 4.4.1
# www.blender.org
mtllib LeverRight.mtl
o Lever_Right_Cube.473
v 0.350665 -0.265804 0.166748
v 0.350665 -0.265804 -0.166748
v -0.350665 -0.265804 -0.166748
v -0.350665 -0.265804 0.166748
v 0.455347 -0.482734 -0.495848
v 0.455347 -0.523234 -0.455347
v 0.495848 -0.482734 -0.455347
v 0.455347 -0.511372 -0.483985
v 0.478730 -0.506116 -0.478730
v 0.483985 -0.511372 -0.455347
v 0.483985 -0.482734 -0.483985
v -0.455347 -0.482734 -0.495848
v -0.495848 -0.482734 -0.455347
v -0.455347 -0.523234 -0.455347
v -0.483985 -0.482734 -0.483985
v -0.478730 -0.506116 -0.478730
v -0.483985 -0.511372 -0.455347
v -0.455347 -0.511372 -0.483985
v 0.455347 -0.482733 0.495848
v 0.495848 -0.482733 0.455347
v 0.455347 -0.523233 0.455347
v 0.483985 -0.482733 0.483985
v 0.478730 -0.506116 0.478730
v 0.483985 -0.511371 0.455347
v 0.455347 -0.511371 0.483985
v -0.495848 -0.482733 0.455347
v -0.455347 -0.482733 0.495848
v -0.455347 -0.523233 0.455347
v -0.483985 -0.482733 0.483985
v -0.478730 -0.506116 0.478730
v -0.455347 -0.511371 0.483985
v -0.483985 -0.511371 0.455347
v 0.455347 -0.289523 -0.495848
v 0.495848 -0.289523 -0.455347
v 0.455347 -0.249023 -0.455347
v 0.483985 -0.289523 -0.483985
v 0.478730 -0.266140 -0.478730
v 0.483985 -0.260885 -0.455347
v 0.455347 -0.260885 -0.483985
v -0.455347 -0.289523 -0.495848
v -0.455347 -0.249023 -0.455347
v -0.495848 -0.289523 -0.455347
v -0.455347 -0.260885 -0.483985
v -0.478730 -0.266140 -0.478730
v -0.483985 -0.260885 -0.455347
v -0.483985 -0.289523 -0.483985
v -0.495848 -0.289523 0.455347
v -0.455347 -0.249023 0.455347
v -0.455347 -0.289523 0.495848
v -0.483985 -0.260885 0.455347
v -0.478730 -0.266140 0.478730
v -0.455347 -0.260885 0.483985
v -0.483985 -0.289523 0.483985
v 0.455347 -0.289523 0.495848
v 0.455347 -0.249023 0.455347
v 0.495848 -0.289523 0.455347
v 0.455347 -0.260885 0.483985
v 0.478730 -0.266140 0.478730
v 0.483985 -0.260885 0.455347
v 0.483985 -0.289523 0.483985
v -0.350665 -0.265803 0.310165
v -0.310165 -0.265803 0.350665
v -0.338803 -0.265803 0.338803
v 0.310165 -0.265803 0.350665
v 0.350665 -0.265803 0.310165
v 0.338803 -0.265803 0.338803
v -0.310165 -0.265804 -0.350665
v -0.350665 -0.265804 -0.310165
v -0.338803 -0.265804 -0.338803
v 0.350665 -0.265804 -0.310165
v 0.310165 -0.265804 -0.350665
v 0.338803 -0.265804 -0.338803
v 0.350665 -0.089239 -0.310165
v 0.310165 -0.089239 -0.350665
v 0.338803 -0.089239 -0.338803
v -0.310165 -0.089239 -0.350665
v -0.350665 -0.089239 -0.310165
v -0.338803 -0.089239 -0.338803
v -0.350665 -0.089239 0.310165
v -0.310165 -0.089238 0.350665
v -0.338803 -0.089239 0.338803
v 0.310165 -0.089238 0.350665
v 0.350665 -0.089239 0.310165
v 0.338803 -0.089239 0.338803
v -0.310165 -0.089239 -0.126248
v -0.350665 -0.129739 -0.207248
v -0.310165 -0.048738 -0.166748
v -0.338803 -0.101101 -0.166748
v -0.335734 -0.089239 -0.166748
v -0.338803 -0.089239 -0.178610
v -0.310165 -0.077376 -0.154886
v -0.310165 -0.089239 0.126248
v -0.310165 -0.048738 0.166748
v -0.350665 -0.129738 0.207248
v -0.310165 -0.077376 0.154886
v -0.335734 -0.089239 0.166748
v -0.338803 -0.089239 0.178610
v -0.338803 -0.101100 0.166748
v 0.310165 -0.089239 0.126248
v 0.350665 -0.129738 0.207248
v 0.310165 -0.048738 0.166748
v 0.338803 -0.101100 0.166748
v 0.335734 -0.089239 0.166748
v 0.338803 -0.089239 0.178610
v 0.310165 -0.077376 0.154885
v 0.310165 -0.089239 -0.126248
v 0.310165 -0.048738 -0.166748
v 0.350665 -0.129739 -0.207248
v 0.310165 -0.077376 -0.154886
v 0.335734 -0.089239 -0.166748
v 0.338803 -0.089239 -0.178610
v 0.338803 -0.101101 -0.166748
v 0.310165 0.104019 -0.350665
v 0.350665 0.104019 -0.310165
v 0.310165 0.144519 -0.310165
v 0.338803 0.104019 -0.338803
v 0.333548 0.127402 -0.333548
v 0.338803 0.132657 -0.310165
v 0.310165 0.132657 -0.338803
v -0.310165 0.104019 -0.350665
v -0.310165 0.144519 -0.310165
v -0.350665 0.104019 -0.310165
v -0.310165 0.132657 -0.338803
v -0.333548 0.127402 -0.333548
v -0.338803 0.132657 -0.310165
v -0.338803 0.104019 -0.338803
v -0.350665 0.104019 0.207248
v -0.310165 0.104019 0.166748
v -0.310165 0.144519 0.207248
v -0.338803 0.104019 0.178610
v -0.333548 0.127402 0.183865
v -0.310165 0.132657 0.178610
v -0.338803 0.132657 0.207248
v -0.350665 0.104019 0.310165
v -0.310165 0.144519 0.310165
v -0.310165 0.104019 0.350665
v -0.338803 0.132657 0.310165
v -0.333548 0.127402 0.333547
v -0.310165 0.132657 0.338803
v -0.338803 0.104019 0.338803
v 0.310165 0.104019 0.350665
v 0.310165 0.144519 0.310165
v 0.350665 0.104019 0.310165
v 0.310165 0.132657 0.338803
v 0.333548 0.127402 0.333547
v 0.338803 0.132657 0.310165
v 0.338803 0.104019 0.338803
v 0.350665 0.104019 -0.207248
v 0.310165 0.104019 -0.166748
v 0.310165 0.144519 -0.207248
v 0.338803 0.104019 -0.178610
v 0.333548 0.127402 -0.183866
v 0.310165 0.132657 -0.178610
v 0.338803 0.132657 -0.207248
v -0.350665 0.104019 -0.207248
v -0.310165 0.144519 -0.207248
v -0.310165 0.104019 -0.166748
v -0.338803 0.132657 -0.207248
v -0.333548 0.127402 -0.183866
v -0.310165 0.132657 -0.178610
v -0.338803 0.104019 -0.178610
v 0.350665 0.104019 0.207248
v 0.310165 0.144519 0.207248
v 0.310165 0.104019 0.166748
v 0.338803 0.132657 0.207248
v 0.333548 0.127402 0.183865
v 0.310165 0.132657 0.178610
v 0.338803 0.104019 0.178610
v 0.663167 0.140010 -0.105213
v 0.679496 0.102947 -0.064713
v 0.674713 0.113803 -0.093350
v 0.679496 0.102947 0.064713
v 0.663166 0.140010 0.105213
v 0.674713 0.113803 0.093350
v -0.070393 -0.183170 0.064712
v -0.033330 -0.166841 0.105212
v -0.017002 -0.203904 0.064712
v -0.059537 -0.178387 0.093350
v -0.045301 -0.197667 0.088095
v -0.021785 -0.193048 0.093350
v -0.047991 -0.204594 0.064712
v -0.070393 -0.183169 -0.064713
v -0.017002 -0.203904 -0.064713
v -0.033330 -0.166841 -0.105213
v -0.047991 -0.204594 -0.064713
v -0.045301 -0.197667 -0.088096
v -0.021784 -0.193048 -0.093350
v -0.059537 -0.178387 -0.093350
v 0.589924 0.306260 -0.064713
v 0.606252 0.269198 -0.105213
v 0.594706 0.295405 -0.093350
v 0.606251 0.269197 0.105213
v 0.589923 0.306260 0.064713
v 0.594706 0.295404 0.093350
v -0.127308 -0.053982 0.064712
v -0.106573 -0.000592 0.064712
v -0.090245 -0.037654 0.105212
v -0.127999 -0.022992 0.064712
v -0.121070 -0.025684 0.088095
v -0.101792 -0.011447 0.093350
v -0.116453 -0.049200 0.093350
v -0.127308 -0.053982 -0.064713
v -0.090245 -0.037654 -0.105213
v -0.106573 -0.000592 -0.064713
v -0.116453 -0.049200 -0.093350
v -0.121070 -0.025683 -0.088096
v -0.101792 -0.011447 -0.093350
v -0.127998 -0.022992 -0.064713
v 0.656813 0.066675 -0.087491
v 0.640485 0.103738 -0.127991
v 0.603422 0.087410 -0.087491
v 0.652030 0.077531 -0.116129
v 0.628514 0.072912 -0.110873
v 0.614278 0.092192 -0.116129
v 0.625823 0.065984 -0.087491
v 0.656813 0.066675 0.087490
v 0.603422 0.087409 0.087490
v 0.640484 0.103737 0.127990
v 0.625823 0.065984 0.087490
v 0.628514 0.072912 0.110873
v 0.614277 0.092192 0.116128
v 0.652030 0.077531 0.116128
v 0.547850 0.314003 -0.087491
v 0.527116 0.260612 -0.087491
v 0.564178 0.276941 -0.127991
v 0.526425 0.291602 -0.087491
v 0.533353 0.288912 -0.110873
v 0.537971 0.265395 -0.116129
v 0.552632 0.303148 -0.116129
v 0.547850 0.314003 0.087490
v 0.564178 0.276940 0.127990
v 0.527115 0.260612 0.087490
v 0.552631 0.303147 0.116128
v 0.533352 0.288912 0.110873
v 0.537970 0.265395 0.116128
v 0.526424 0.291602 0.087490
v 0.963076 0.201604 -0.087491
v 0.983811 0.254995 -0.087491
v 0.946748 0.238667 -0.127991
v 0.984502 0.224005 -0.087491
v 0.977574 0.226696 -0.110873
v 0.972955 0.250212 -0.116129
v 0.958295 0.212459 -0.116129
v 0.963076 0.201604 0.087490
v 0.946748 0.238666 0.127990
v 0.983811 0.254995 0.087490
v 0.958294 0.212459 0.116128
v 0.977573 0.226695 0.110873
v 0.972955 0.250212 0.116128
v 0.984501 0.224005 0.087490
v 0.854113 0.448932 -0.087491
v 0.870442 0.411870 -0.127991
v 0.907504 0.428198 -0.087491
v 0.858896 0.438077 -0.116129
v 0.882413 0.442694 -0.110873
v 0.896648 0.423415 -0.116129
v 0.885103 0.449622 -0.087491
v 0.854113 0.448931 0.087490
v 0.907504 0.428198 0.087490
v 0.870441 0.411869 0.127990
v 0.885102 0.449622 0.087490
v 0.882412 0.442694 0.110873
v 0.896648 0.423415 0.116128
v 0.858895 0.438076 0.116128
vn 0.9673 0.1794 -0.1794
vn 0.9673 -0.1794 0.1794
vn 0.9673 -0.1794 -0.1794
vn -0.9808 -0.0000 0.1951
vn -0.9976 0.0488 -0.0488
vn -1.0000 -0.0000 -0.0000
vn -0.9673 0.1794 0.1794
vn -0.9673 -0.1794 -0.1794
vn -0.9673 -0.1794 0.1794
vn 0.1794 0.1794 0.9673
vn -0.1794 -0.1794 0.9673
vn 0.1794 -0.1794 0.9673
vn 0.1794 0.9673 0.1794
vn -0.1794 0.9673 -0.1794
vn -0.1794 0.9673 0.1794
vn -0.1794 -0.9673 -0.1794
vn 0.1794 -0.9673 0.1794
vn -0.1794 -0.9673 0.1794
vn 0.9976 0.0488 0.0488
vn 1.0000 -0.0000 -0.0000
vn -0.1951 -0.0000 -0.9808
vn 0.1951 -0.0000 -0.9808
vn 0.9808 -0.0000 -0.1951
vn 0.9976 0.0488 -0.0488
vn 0.9808 -0.0000 0.1951
vn -0.9976 0.0488 0.0488
vn -0.9808 -0.0000 -0.1951
vn 0.1951 -0.0000 0.9808
vn -0.1951 -0.0000 0.9808
vn -0.1794 0.1794 -0.9673
vn 0.1751 0.1105 -0.9783
vn -0.1751 0.1105 -0.9783
vn 0.9673 0.1794 0.1794
vn -0.1751 0.1105 0.9783
vn 0.1751 0.1105 0.9783
vn 0.2258 -0.9575 0.1794
vn 0.3954 -0.8975 -0.1951
vn 0.3954 -0.8975 0.1951
vn 0.1751 0.9783 -0.1105
vn -0.1751 0.9783 0.1105
vn -0.1751 0.9783 -0.1105
vn -0.9673 0.1794 -0.1794
vn -0.0918 -0.2365 -0.9673
vn -0.0787 0.1785 -0.9808
vn 0.0787 -0.1785 -0.9808
vn 0.5541 -0.8129 -0.1794
vn 0.2258 -0.9575 -0.1794
vn -0.0918 -0.2365 0.9673
vn -0.0787 0.1785 0.9808
vn -0.2365 0.0918 0.9673
vn -0.8129 -0.5541 -0.1794
vn -0.9575 -0.2258 0.1794
vn -0.9575 -0.2258 -0.1794
vn -0.2365 0.0918 -0.9673
vn 0.2365 -0.0918 -0.9673
vn 0.2365 -0.0918 0.9673
vn -0.8129 -0.5541 0.1794
vn -0.2258 0.9575 0.1794
vn -0.5541 0.8129 -0.1794
vn -0.5541 0.8129 0.1794
vn 0.9575 0.2258 -0.1794
vn 0.8129 0.5541 0.1794
vn 0.9575 0.2258 0.1794
vn -0.3954 0.8975 0.1951
vn 0.1794 -0.1794 -0.9673
vn 0.3251 -0.3251 -0.8881
vn 0.1369 -0.3791 -0.9152
vn 0.1794 -0.9673 -0.1794
vn 0.3251 -0.8881 -0.3251
vn 0.3791 -0.9152 -0.1369
vn 0.8881 -0.3251 -0.3251
vn 0.9152 -0.1369 -0.3791
vn -0.1794 -0.1794 -0.9673
vn -0.3251 -0.3251 -0.8881
vn -0.3791 -0.1369 -0.9152
vn -0.8881 -0.3251 -0.3251
vn -0.9152 -0.3791 -0.1369
vn -0.3251 -0.8881 -0.3251
vn -0.1369 -0.9152 -0.3791
vn 0.3251 -0.3251 0.8881
vn 0.3791 -0.1369 0.9152
vn 0.8881 -0.3251 0.3251
vn 0.9152 -0.3791 0.1369
vn 0.3251 -0.8881 0.3251
vn 0.1369 -0.9152 0.3791
vn -0.8881 -0.3251 0.3251
vn -0.9152 -0.1369 0.3791
vn -0.3251 -0.3251 0.8881
vn -0.1369 -0.3791 0.9152
vn -0.3251 -0.8881 0.3251
vn -0.3791 -0.9152 0.1369
vn 0.1794 0.1794 -0.9673
vn 0.3251 0.3251 -0.8881
vn 0.3791 0.1369 -0.9152
vn 0.8881 0.3251 -0.3251
vn 0.9152 0.3791 -0.1369
vn 0.1794 0.9673 -0.1794
vn 0.3251 0.8881 -0.3251
vn 0.1369 0.9152 -0.3791
vn -0.3251 0.3251 -0.8881
vn -0.1369 0.3791 -0.9152
vn -0.3251 0.8881 -0.3251
vn -0.3791 0.9152 -0.1369
vn -0.8881 0.3251 -0.3251
vn -0.9152 0.1369 -0.3791
vn -0.8881 0.3251 0.3251
vn -0.9152 0.3791 0.1369
vn -0.3251 0.8881 0.3251
vn -0.1369 0.9152 0.3791
vn -0.1794 0.1794 0.9673
vn -0.3251 0.3251 0.8881
vn -0.3791 0.1369 0.9152
vn 0.3251 0.3251 0.8881
vn 0.1369 0.3791 0.9152
vn 0.3251 0.8881 0.3251
vn 0.3791 0.9152 0.1369
vn 0.8881 0.3251 0.3251
vn 0.9152 0.1369 0.3791
vn -0.6892 0.5123 0.5123
vn -0.6266 0.4322 0.6485
vn -0.6786 0.6786 0.2811
vn -0.9504 0.2970 0.0928
vn -0.9504 0.0928 0.2970
vn -0.6266 0.6485 0.4322
vn -0.6786 0.2811 0.6786
vn -0.6266 0.4322 -0.6485
vn -0.6892 0.5123 -0.5123
vn -0.6786 0.6786 -0.2811
vn -0.6266 0.6485 -0.4322
vn -0.6786 0.2811 -0.6786
vn -0.9504 0.0928 -0.2970
vn -0.9504 0.2970 -0.0928
vn 0.6892 0.5123 -0.5123
vn 0.6266 0.4322 -0.6485
vn 0.6786 0.6786 -0.2811
vn 0.9504 0.2970 -0.0928
vn 0.9504 0.0928 -0.2970
vn 0.6266 0.6485 -0.4322
vn 0.6786 0.2811 -0.6786
vn 0.6266 0.4322 0.6485
vn 0.6892 0.5123 0.5123
vn 0.6786 0.6786 0.2811
vn 0.6266 0.6485 0.4322
vn 0.6786 0.2811 0.6786
vn 0.9504 0.0928 0.2970
vn 0.9504 0.2970 0.0928
vn -0.6816 -0.6555 0.3251
vn -0.7823 -0.4942 0.3791
vn -0.1664 -0.4285 0.8881
vn 0.0276 -0.4021 0.9152
vn 0.0606 -0.9438 0.3251
vn 0.0221 -0.9903 0.1369
vn -0.6816 -0.6555 -0.3251
vn -0.6847 -0.7159 -0.1369
vn 0.0606 -0.9438 -0.3251
vn 0.2437 -0.8927 -0.3791
vn -0.1664 -0.4285 -0.8881
vn -0.2917 -0.2781 -0.9152
vn -0.9437 -0.0606 0.3251
vn -0.9903 -0.0221 0.1369
vn -0.6555 0.6816 0.3251
vn -0.4942 0.7823 0.3791
vn -0.4285 0.1664 0.8881
vn -0.4021 -0.0276 0.9152
vn -0.9438 -0.0606 -0.3251
vn -0.8927 -0.2437 -0.3791
vn -0.4285 0.1664 -0.8881
vn -0.2781 0.2917 -0.9152
vn -0.6555 0.6816 -0.3251
vn -0.7159 0.6847 -0.1369
vn -0.6817 -0.6555 -0.3251
vn -0.6816 -0.6555 0.3250
vn -0.6555 0.6817 0.3251
vn -0.9438 -0.0606 0.3251
vn 0.6555 -0.6817 -0.3251
vn 0.7159 -0.6847 -0.1369
vn 0.9438 0.0606 -0.3251
vn 0.8927 0.2437 -0.3791
vn 0.4285 -0.1664 -0.8881
vn 0.2781 -0.2917 -0.9152
vn 0.5541 -0.8129 0.1794
vn 0.6555 -0.6816 0.3251
vn 0.4942 -0.7823 0.3791
vn 0.4285 -0.1664 0.8881
vn 0.4021 0.0276 0.9152
vn 0.9438 0.0606 0.3251
vn 0.9903 0.0221 0.1369
vn -0.2258 0.9575 -0.1794
vn -0.0606 0.9438 -0.3251
vn -0.2437 0.8927 -0.3791
vn 0.0918 0.2365 -0.9673
vn 0.1664 0.4285 -0.8881
vn 0.2917 0.2781 -0.9152
vn 0.8129 0.5541 -0.1794
vn 0.6817 0.6555 -0.3251
vn 0.6847 0.7159 -0.1369
vn -0.0606 0.9438 0.3251
vn -0.0221 0.9903 0.1369
vn 0.6816 0.6555 0.3251
vn 0.7823 0.4942 0.3791
vn 0.0918 0.2365 0.9673
vn 0.1664 0.4285 0.8881
vn -0.0276 0.4021 0.9152
vn 0.1369 -0.9152 -0.3791
vn -0.3791 -0.9152 -0.1369
vn -0.1369 -0.9152 0.3791
vn 0.3791 -0.9152 0.1369
vn 0.1369 0.3791 -0.9152
vn -0.9152 0.3791 -0.1369
vn -0.1369 0.3791 0.9152
vn 0.9152 0.3791 0.1369
vn 0.9152 -0.1369 0.3791
vn 0.9152 0.1369 -0.3791
vn -0.9152 -0.1369 -0.3791
vn -0.9152 0.1369 0.3791
vn 0.3827 -0.0000 0.9239
vn 0.9239 -0.0000 0.3827
vn 0.3827 -0.0000 -0.9239
vn 0.9239 -0.0000 -0.3827
vn -0.3827 -0.0000 -0.9239
vn -0.9239 -0.0000 -0.3827
vn -0.3827 -0.0000 0.9239
vn -0.9239 -0.0000 0.3827
vn -0.3827 0.9239 -0.0000
vn 0.3827 0.9239 -0.0000
vn 0.1751 0.9783 0.1105
vn -0.0000 0.9239 -0.3827
vn -0.0000 0.3827 -0.9239
vn -0.0000 0.3827 0.9239
vn -0.0000 0.9239 0.3827
vn -0.1369 0.9152 -0.3791
vn -0.3791 0.1369 -0.9152
vn 0.3791 0.1369 0.9152
vn -0.6847 -0.7159 0.1369
vn 0.3725 -0.8455 0.3827
vn 0.1543 -0.3502 0.9239
vn 0.1543 -0.3502 -0.9239
vn 0.3725 -0.8455 -0.3827
vn -0.7159 0.6847 0.1369
vn -0.2781 0.2917 0.9152
vn -0.3725 0.8455 0.3827
vn -0.3725 0.8455 -0.3827
vn -0.3954 0.8975 -0.1951
vn -0.1543 0.3502 -0.9239
vn -0.7823 -0.4942 -0.3791
vn -0.2917 -0.2781 0.9152
vn 0.0221 -0.9903 -0.1369
vn -0.9903 -0.0221 -0.1369
vn -0.4021 -0.0276 -0.9152
vn 0.7159 -0.6847 0.1369
vn 0.9903 0.0221 -0.1369
vn -0.0220 0.9903 -0.1369
vn 0.7823 0.4942 -0.3791
vn 0.8927 0.2437 0.3791
vn 0.0276 -0.4021 -0.9152
vn -0.4942 0.7823 -0.3791
vn -0.0276 0.4021 -0.9152
vn 0.2437 -0.8927 0.3791
vn -0.2437 0.8927 0.3791
vn 0.0787 -0.1785 0.9808
vn 0.3791 -0.1369 -0.9152
vn 0.9152 -0.3791 -0.1369
vn -0.1369 -0.3791 -0.9152
vn 0.1369 -0.3791 0.9152
vn -0.9152 -0.3791 0.1369
vn -0.3791 -0.1369 0.9152
vn 0.3791 0.9152 -0.1369
vn -0.3791 0.9152 0.1369
vn 0.1369 0.9152 0.3791
vn -0.5486 0.5912 0.5912
vn -0.9391 0.2430 0.2430
vn -0.5486 0.5912 -0.5912
vn -0.9391 0.2430 -0.2430
vn 0.5486 0.5912 -0.5912
vn 0.9391 0.2430 -0.2430
vn 0.5486 0.5912 0.5912
vn 0.9391 0.2430 0.2430
vn -0.8927 -0.2437 0.3791
vn 0.4942 -0.7823 -0.3791
vn 0.4021 0.0276 -0.9152
vn 0.2781 -0.2917 0.9152
vn 0.6847 0.7159 0.1369
vn 0.2917 0.2781 0.9152
vn -0.1543 0.3502 0.9239
vt 0.019312 0.800653
vt 0.017359 0.829949
s 1
usemtl Atlas
f 34/1/1 20/1/2 7/1/3
f 61/2/4 94/2/5 4/2/6
f 47/1/7 13/1/8 26/1/9
f 54/1/10 27/1/11 19/1/12
f 55/1/13 41/1/14 48/1/15
f 14/1/16 21/1/17 28/1/18
f 108/2/19 1/2/20 2/2/20
f 76/2/21 71/2/22 67/2/21
f 70/2/23 108/2/19 2/2/20
f 100/2/24 65/2/25 1/2/20
f 86/2/26 68/2/27 3/2/6
f 82/2/28 62/2/29 64/2/28
f 128/2/30 101/2/31 93/2/32
f 120/2/30 74/2/22 76/2/21
f 150/2/13 121/2/14 156/2/15
f 73/2/23 148/2/33 108/2/19
f 149/2/10 87/2/34 107/2/35
f 142/2/13 129/2/14 135/2/15
f 177/1/36 170/1/37 172/1/38
f 99/2/39 85/2/40 92/2/41
f 155/2/7 77/2/27 86/2/26
f 79/2/4 127/2/42 94/2/5
f 141/2/10 80/2/29 82/2/28
f 94/2/5 3/2/6 4/2/6
f 162/2/1 83/2/25 100/2/24
f 184/1/43 190/1/44 169/1/45
f 237/2/46 216/2/36 209/2/47
f 176/1/48 192/1/49 197/1/50
f 182/1/51 195/1/52 202/1/53
f 225/2/54 239/2/55 210/2/43
f 245/2/56 231/2/50 218/2/48
f 232/2/52 211/2/51 217/2/57
f 258/2/58 223/2/59 230/2/60
f 238/2/61 259/2/62 246/2/63
f 193/1/64 204/1/59 196/1/60
f 5/1/65 9/1/66 8/1/67
f 6/1/68 9/1/69 10/1/70
f 7/1/3 9/1/71 11/1/72
f 12/1/73 16/1/74 15/1/75
f 13/1/8 16/1/76 17/1/77
f 14/1/16 16/1/78 18/1/79
f 19/1/12 23/1/80 22/1/81
f 20/1/2 23/1/82 24/1/83
f 21/1/17 23/1/84 25/1/85
f 26/1/9 30/1/86 29/1/87
f 27/1/11 30/1/88 31/1/89
f 28/1/18 30/1/90 32/1/91
f 33/1/92 37/1/93 36/1/94
f 34/1/1 37/1/95 38/1/96
f 35/1/97 37/1/98 39/1/99
f 40/1/30 44/1/100 43/1/101
f 41/1/14 44/1/102 45/1/103
f 42/1/42 44/1/104 46/1/105
f 47/1/7 51/1/106 50/1/107
f 48/1/15 51/1/108 52/1/109
f 49/1/110 51/1/111 53/1/112
f 54/1/10 58/1/113 57/1/114
f 55/1/13 58/1/115 59/1/116
f 56/1/33 58/1/117 60/1/118
f 91/2/119 88/2/120 85/2/121
f 88/2/122 90/2/123 86/2/26
f 90/2/124 91/2/119 87/2/125
f 98/2/126 95/2/127 92/2/128
f 95/2/127 97/2/129 93/2/130
f 97/2/131 98/2/132 94/2/5
f 105/2/133 102/2/134 99/2/135
f 102/2/136 104/2/137 100/2/24
f 104/2/138 105/2/133 101/2/139
f 112/2/140 109/2/141 106/2/142
f 109/2/141 111/2/143 107/2/144
f 111/2/145 112/2/146 108/2/19
f 113/2/92 117/2/93 116/2/94
f 114/2/1 117/2/95 118/2/96
f 115/2/97 117/2/98 119/2/99
f 120/2/30 124/2/100 123/2/101
f 121/2/14 124/2/102 125/2/103
f 122/2/42 124/2/104 126/2/105
f 127/2/42 131/2/104 130/2/105
f 128/2/30 131/2/100 132/2/101
f 129/2/14 131/2/102 133/2/103
f 134/2/7 138/2/106 137/2/107
f 135/2/15 138/2/108 139/2/109
f 136/2/110 138/2/111 140/2/112
f 141/2/10 145/2/113 144/2/114
f 142/2/13 145/2/115 146/2/116
f 143/2/33 145/2/117 147/2/118
f 148/2/33 152/2/117 151/2/118
f 149/2/10 152/2/113 153/2/114
f 150/2/13 152/2/115 154/2/116
f 155/2/7 159/2/106 158/2/107
f 156/2/15 159/2/108 160/2/109
f 157/2/110 159/2/111 161/2/112
f 162/2/1 166/2/95 165/2/96
f 163/2/97 166/2/98 167/2/99
f 164/2/92 166/2/93 168/2/94
f 175/1/57 179/1/147 178/1/148
f 176/1/48 179/1/149 180/1/150
f 177/1/36 179/1/151 181/1/152
f 182/1/51 186/1/153 185/1/154
f 183/1/47 186/1/155 187/1/156
f 184/1/43 186/1/157 188/1/158
f 195/1/52 199/1/159 198/1/160
f 196/1/60 199/1/161 200/1/162
f 197/1/50 199/1/163 201/1/164
f 202/1/53 206/1/165 205/1/166
f 203/1/54 206/1/167 207/1/168
f 204/1/59 206/1/169 208/1/170
f 209/2/47 213/2/155 212/2/156
f 210/2/43 213/2/157 214/2/158
f 211/2/51 213/2/171 215/2/154
f 216/2/36 220/2/151 219/2/152
f 217/2/57 220/2/172 221/2/148
f 218/2/48 220/2/149 222/2/150
f 223/2/59 227/2/169 226/2/170
f 224/2/53 227/2/165 228/2/166
f 225/2/54 227/2/167 229/2/168
f 230/2/60 234/2/173 233/2/162
f 231/2/50 234/2/163 235/2/164
f 232/2/52 234/2/174 236/2/160
f 237/2/46 241/2/175 240/2/176
f 238/2/61 241/2/177 242/2/178
f 239/2/55 241/2/179 243/2/180
f 244/2/181 248/2/182 247/2/183
f 245/2/56 248/2/184 249/2/185
f 246/2/63 248/2/186 250/2/187
f 251/2/188 255/2/189 254/2/190
f 252/2/191 255/2/192 256/2/193
f 253/2/194 255/2/195 257/2/196
f 258/2/58 262/2/197 261/2/198
f 259/2/62 262/2/199 263/2/200
f 260/2/201 262/2/202 264/2/203
f 8/1/67 12/1/73 5/1/65
f 6/1/68 18/1/79 8/1/204
f 17/1/77 26/1/9 13/1/8
f 14/1/16 32/1/91 17/1/205
f 31/1/89 19/1/12 27/1/11
f 28/1/18 25/1/85 31/1/206
f 24/1/83 7/1/3 20/1/2
f 21/1/17 10/1/70 24/1/207
f 39/1/99 41/1/14 35/1/97
f 33/1/92 43/1/101 39/1/208
f 45/1/103 48/1/15 41/1/14
f 42/1/42 50/1/107 45/1/209
f 52/1/109 55/1/13 48/1/15
f 49/1/110 57/1/114 52/1/210
f 59/1/116 35/1/97 55/1/13
f 56/1/33 38/1/96 59/1/211
f 22/1/81 54/1/10 19/1/12
f 20/1/2 60/1/118 22/1/212
f 36/1/94 5/1/65 33/1/92
f 34/1/1 11/1/72 36/1/213
f 15/1/75 40/1/30 12/1/73
f 13/1/8 46/1/105 15/1/214
f 53/1/112 27/1/11 49/1/110
f 47/1/7 29/1/87 53/1/215
f 66/2/216 82/2/28 64/2/28
f 65/2/25 84/2/217 66/2/217
f 75/2/218 71/2/22 74/2/22
f 73/2/23 72/2/219 75/2/219
f 69/2/220 76/2/21 67/2/21
f 68/2/27 78/2/221 69/2/221
f 81/2/222 62/2/29 80/2/29
f 79/2/4 63/2/223 81/2/223
f 88/2/224 92/2/41 85/2/40
f 86/2/26 98/2/132 88/2/122
f 102/2/225 106/2/226 99/2/39
f 100/2/24 112/2/146 102/2/136
f 92/2/41 105/2/227 99/2/39
f 95/2/228 101/2/31 105/2/228
f 87/2/34 109/2/229 107/2/35
f 91/2/230 106/2/226 109/2/230
f 119/2/99 121/2/14 115/2/97
f 113/2/92 123/2/101 119/2/208
f 133/2/103 135/2/15 129/2/14
f 127/2/42 137/2/107 133/2/209
f 139/2/109 142/2/13 135/2/15
f 136/2/110 144/2/114 139/2/210
f 154/2/116 115/2/97 150/2/13
f 148/2/33 118/2/96 154/2/211
f 125/2/103 156/2/15 121/2/14
f 122/2/42 158/2/107 125/2/209
f 146/2/116 163/2/97 142/2/13
f 143/2/33 165/2/96 146/2/211
f 132/2/101 164/2/92 128/2/30
f 129/2/14 167/2/99 132/2/231
f 160/2/109 150/2/13 156/2/15
f 157/2/110 153/2/114 160/2/210
f 75/2/219 114/2/1 73/2/23
f 74/2/22 116/2/94 75/2/218
f 126/2/105 77/2/27 122/2/42
f 120/2/30 78/2/220 126/2/232
f 104/2/137 162/2/1 100/2/24
f 101/2/31 168/2/94 104/2/218
f 127/2/42 97/2/131 94/2/5
f 130/2/232 93/2/32 97/2/220
f 84/2/216 141/2/10 82/2/28
f 83/2/25 147/2/118 84/2/217
f 107/2/35 151/2/233 149/2/10
f 111/2/145 148/2/33 151/2/118
f 161/2/112 87/2/34 157/2/110
f 155/2/7 90/2/123 161/2/215
f 140/2/112 80/2/29 136/2/110
f 134/2/7 81/2/223 140/2/215
f 181/1/152 183/1/47 177/1/36
f 175/1/57 185/1/154 181/1/234
f 174/1/235 177/1/36 172/1/38
f 174/1/236 176/1/48 180/1/150
f 171/1/237 184/1/43 169/1/45
f 170/1/37 187/1/156 171/1/238
f 198/1/160 202/1/53 195/1/52
f 196/1/60 208/1/170 198/1/239
f 192/1/49 200/1/240 197/1/50
f 194/1/241 196/1/60 200/1/162
f 191/1/242 204/1/59 189/1/243
f 191/1/244 203/1/54 207/1/168
f 188/1/158 203/1/54 184/1/43
f 182/1/51 205/1/166 188/1/245
f 178/1/148 195/1/52 175/1/57
f 178/1/246 197/1/50 201/1/164
f 215/2/154 217/2/57 211/2/51
f 209/2/47 219/2/152 215/2/247
f 226/2/170 230/2/60 223/2/59
f 224/2/53 236/2/160 226/2/248
f 228/2/166 211/2/51 224/2/53
f 228/2/249 210/2/43 214/2/158
f 221/2/148 232/2/52 217/2/57
f 221/2/246 231/2/50 235/2/164
f 237/2/46 250/2/250 244/2/181
f 238/2/61 250/2/187 240/2/251
f 257/2/196 259/2/62 253/2/194
f 251/2/188 261/2/198 257/2/252
f 256/2/193 239/2/55 252/2/191
f 256/2/253 238/2/61 242/2/178
f 249/2/185 260/2/201 245/2/56
f 246/2/63 263/2/200 249/2/254
f 212/2/156 237/2/46 209/2/47
f 210/2/43 243/2/180 212/2/255
f 251/2/188 229/2/256 223/2/59
f 252/2/191 229/2/168 254/2/257
f 222/2/150 245/2/56 218/2/48
f 216/2/36 247/2/183 222/2/258
f 230/2/60 264/2/259 258/2/58
f 231/2/50 264/2/203 233/2/240
f 40/1/30 5/1/65 12/1/73
f 34/1/1 56/1/33 20/1/2
f 61/2/4 79/2/4 94/2/5
f 47/1/7 42/1/42 13/1/8
f 54/1/10 49/1/110 27/1/11
f 55/1/13 35/1/97 41/1/14
f 14/1/16 6/1/68 21/1/17
f 108/2/19 100/2/24 1/2/20
f 76/2/21 74/2/22 71/2/22
f 70/2/23 73/2/23 108/2/19
f 100/2/24 83/2/25 65/2/25
f 86/2/26 77/2/27 68/2/27
f 82/2/28 80/2/29 62/2/29
f 128/2/30 164/2/92 101/2/31
f 120/2/30 113/2/92 74/2/22
f 150/2/13 115/2/97 121/2/14
f 73/2/23 114/2/1 148/2/33
f 149/2/10 157/2/110 87/2/34
f 142/2/13 163/2/97 129/2/14
f 177/1/36 183/1/47 170/1/37
f 99/2/39 106/2/226 85/2/40
f 155/2/7 122/2/42 77/2/27
f 79/2/4 134/2/7 127/2/42
f 141/2/10 136/2/110 80/2/29
f 94/2/5 86/2/26 3/2/6
f 162/2/1 143/2/33 83/2/25
f 184/1/43 203/1/54 190/1/44
f 237/2/46 244/2/181 216/2/36
f 176/1/48 173/1/260 192/1/49
f 182/1/51 175/1/57 195/1/52
f 225/2/54 252/2/191 239/2/55
f 245/2/56 260/2/201 231/2/50
f 232/2/52 224/2/53 211/2/51
f 258/2/58 251/2/188 223/2/59
f 238/2/61 253/2/194 259/2/62
f 193/1/64 189/1/243 204/1/59
f 5/1/65 11/1/261 9/1/66
f 6/1/68 8/1/204 9/1/69
f 7/1/3 10/1/262 9/1/71
f 12/1/73 18/1/263 16/1/74
f 13/1/8 15/1/214 16/1/76
f 14/1/16 17/1/205 16/1/78
f 19/1/12 25/1/264 23/1/80
f 20/1/2 22/1/212 23/1/82
f 21/1/17 24/1/207 23/1/84
f 26/1/9 32/1/265 30/1/86
f 27/1/11 29/1/266 30/1/88
f 28/1/18 31/1/206 30/1/90
f 33/1/92 39/1/208 37/1/93
f 34/1/1 36/1/213 37/1/95
f 35/1/97 38/1/267 37/1/98
f 40/1/30 46/1/232 44/1/100
f 41/1/14 43/1/231 44/1/102
f 42/1/42 45/1/209 44/1/104
f 47/1/7 53/1/215 51/1/106
f 48/1/15 50/1/268 51/1/108
f 49/1/110 52/1/210 51/1/111
f 54/1/10 60/1/233 58/1/113
f 55/1/13 57/1/269 58/1/115
f 56/1/33 59/1/211 58/1/117
f 91/2/119 89/2/270 88/2/120
f 88/2/122 89/2/271 90/2/123
f 90/2/124 89/2/270 91/2/119
f 98/2/126 96/2/272 95/2/127
f 95/2/127 96/2/272 97/2/129
f 97/2/131 96/2/273 98/2/132
f 105/2/133 103/2/274 102/2/134
f 102/2/136 103/2/275 104/2/137
f 104/2/138 103/2/274 105/2/133
f 112/2/140 110/2/276 109/2/141
f 109/2/141 110/2/276 111/2/143
f 111/2/145 110/2/277 112/2/146
f 113/2/92 119/2/208 117/2/93
f 114/2/1 116/2/213 117/2/95
f 115/2/97 118/2/267 117/2/98
f 120/2/30 126/2/232 124/2/100
f 121/2/14 123/2/231 124/2/102
f 122/2/42 125/2/209 124/2/104
f 127/2/42 133/2/209 131/2/104
f 128/2/30 130/2/232 131/2/100
f 129/2/14 132/2/231 131/2/102
f 134/2/7 140/2/215 138/2/106
f 135/2/15 137/2/268 138/2/108
f 136/2/110 139/2/210 138/2/111
f 141/2/10 147/2/233 145/2/113
f 142/2/13 144/2/269 145/2/115
f 143/2/33 146/2/211 145/2/117
f 148/2/33 154/2/211 152/2/117
f 149/2/10 151/2/233 152/2/113
f 150/2/13 153/2/269 152/2/115
f 155/2/7 161/2/215 159/2/106
f 156/2/15 158/2/268 159/2/108
f 157/2/110 160/2/210 159/2/111
f 162/2/1 168/2/213 166/2/95
f 163/2/97 165/2/267 166/2/98
f 164/2/92 167/2/208 166/2/93
f 175/1/57 181/1/234 179/1/147
f 176/1/48 178/1/246 179/1/149
f 177/1/36 180/1/258 179/1/151
f 182/1/51 188/1/245 186/1/153
f 183/1/47 185/1/247 186/1/155
f 184/1/43 187/1/255 186/1/157
f 195/1/52 201/1/278 199/1/159
f 196/1/60 198/1/239 199/1/161
f 197/1/50 200/1/240 199/1/163
f 202/1/53 208/1/248 206/1/165
f 203/1/54 205/1/249 206/1/167
f 204/1/59 207/1/256 206/1/169
f 209/2/47 215/2/247 213/2/155
f 210/2/43 212/2/255 213/2/157
f 211/2/51 214/2/245 213/2/171
f 216/2/36 222/2/258 220/2/151
f 217/2/57 219/2/234 220/2/172
f 218/2/48 221/2/246 220/2/149
f 223/2/59 229/2/256 227/2/169
f 224/2/53 226/2/248 227/2/165
f 225/2/54 228/2/249 227/2/167
f 230/2/60 236/2/239 234/2/173
f 231/2/50 233/2/240 234/2/163
f 232/2/52 235/2/278 234/2/174
f 237/2/46 243/2/279 241/2/175
f 238/2/61 240/2/251 241/2/177
f 239/2/55 242/2/280 241/2/179
f 244/2/181 250/2/250 248/2/182
f 245/2/56 247/2/281 248/2/184
f 246/2/63 249/2/254 248/2/186
f 251/2/188 257/2/252 255/2/189
f 252/2/191 254/2/257 255/2/192
f 253/2/194 256/2/253 255/2/195
f 258/2/58 264/2/259 262/2/197
f 259/2/62 261/2/282 262/2/199
f 260/2/201 263/2/283 262/2/202
f 8/1/67 18/1/263 12/1/73
f 6/1/68 14/1/16 18/1/79
f 17/1/77 32/1/265 26/1/9
f 14/1/16 28/1/18 32/1/91
f 31/1/89 25/1/264 19/1/12
f 28/1/18 21/1/17 25/1/85
f 24/1/83 10/1/262 7/1/3
f 21/1/17 6/1/68 10/1/70
f 39/1/99 43/1/231 41/1/14
f 33/1/92 40/1/30 43/1/101
f 45/1/103 50/1/268 48/1/15
f 42/1/42 47/1/7 50/1/107
f 52/1/109 57/1/269 55/1/13
f 49/1/110 54/1/10 57/1/114
f 59/1/116 38/1/267 35/1/97
f 56/1/33 34/1/1 38/1/96
f 22/1/81 60/1/233 54/1/10
f 20/1/2 56/1/33 60/1/118
f 36/1/94 11/1/261 5/1/65
f 34/1/1 7/1/3 11/1/72
f 15/1/75 46/1/232 40/1/30
f 13/1/8 42/1/42 46/1/105
f 53/1/112 29/1/266 27/1/11
f 47/1/7 26/1/9 29/1/87
f 66/2/216 84/2/216 82/2/28
f 65/2/25 83/2/25 84/2/217
f 75/2/218 72/2/218 71/2/22
f 73/2/23 70/2/23 72/2/219
f 69/2/220 78/2/220 76/2/21
f 68/2/27 77/2/27 78/2/221
f 81/2/222 63/2/222 62/2/29
f 79/2/4 61/2/4 63/2/223
f 88/2/224 98/2/224 92/2/41
f 86/2/26 94/2/5 98/2/132
f 102/2/225 112/2/225 106/2/226
f 100/2/24 108/2/19 112/2/146
f 92/2/41 95/2/227 105/2/227
f 95/2/228 93/2/32 101/2/31
f 87/2/34 91/2/229 109/2/229
f 91/2/230 85/2/40 106/2/226
f 119/2/99 123/2/231 121/2/14
f 113/2/92 120/2/30 123/2/101
f 133/2/103 137/2/268 135/2/15
f 127/2/42 134/2/7 137/2/107
f 139/2/109 144/2/269 142/2/13
f 136/2/110 141/2/10 144/2/114
f 154/2/116 118/2/267 115/2/97
f 148/2/33 114/2/1 118/2/96
f 125/2/103 158/2/268 156/2/15
f 122/2/42 155/2/7 158/2/107
f 146/2/116 165/2/267 163/2/97
f 143/2/33 162/2/1 165/2/96
f 132/2/101 167/2/208 164/2/92
f 129/2/14 163/2/97 167/2/99
f 160/2/109 153/2/269 150/2/13
f 157/2/110 149/2/10 153/2/114
f 75/2/219 116/2/213 114/2/1
f 74/2/22 113/2/92 116/2/94
f 126/2/105 78/2/221 77/2/27
f 120/2/30 76/2/21 78/2/220
f 104/2/137 168/2/213 162/2/1
f 101/2/31 164/2/92 168/2/94
f 127/2/42 130/2/105 97/2/131
f 130/2/232 128/2/30 93/2/32
f 84/2/216 147/2/233 141/2/10
f 83/2/25 143/2/33 147/2/118
f 107/2/35 111/2/216 151/2/233
f 111/2/145 108/2/19 148/2/33
f 161/2/112 90/2/222 87/2/34
f 155/2/7 86/2/26 90/2/123
f 140/2/112 81/2/222 80/2/29
f 134/2/7 79/2/4 81/2/223
f 181/1/152 185/1/247 183/1/47
f 175/1/57 182/1/51 185/1/154
f 174/1/235 180/1/258 177/1/36
f 174/1/236 173/1/260 176/1/48
f 171/1/237 187/1/255 184/1/43
f 170/1/37 183/1/47 187/1/156
f 198/1/160 208/1/248 202/1/53
f 196/1/60 204/1/59 208/1/170
f 192/1/49 194/1/284 200/1/240
f 194/1/241 193/1/64 196/1/60
f 191/1/242 207/1/256 204/1/59
f 191/1/244 190/1/44 203/1/54
f 188/1/158 205/1/249 203/1/54
f 182/1/51 202/1/53 205/1/166
f 178/1/148 201/1/278 195/1/52
f 178/1/246 176/1/48 197/1/50
f 215/2/154 219/2/234 217/2/57
f 209/2/47 216/2/36 219/2/152
f 226/2/170 236/2/239 230/2/60
f 224/2/53 232/2/52 236/2/160
f 228/2/166 214/2/245 211/2/51
f 228/2/249 225/2/54 210/2/43
f 221/2/148 235/2/278 232/2/52
f 221/2/246 218/2/48 231/2/50
f 237/2/46 240/2/176 250/2/250
f 238/2/61 246/2/63 250/2/187
f 257/2/196 261/2/282 259/2/62
f 251/2/188 258/2/58 261/2/198
f 256/2/193 242/2/280 239/2/55
f 256/2/253 253/2/194 238/2/61
f 249/2/185 263/2/283 260/2/201
f 246/2/63 259/2/62 263/2/200
f 212/2/156 243/2/279 237/2/46
f 210/2/43 239/2/55 243/2/180
f 251/2/188 254/2/190 229/2/256
f 252/2/191 225/2/54 229/2/168
f 222/2/150 247/2/281 245/2/56
f 216/2/36 244/2/181 247/2/183
f 230/2/60 233/2/162 264/2/259
f 231/2/50 260/2/201 264/2/203
f 40/1/30 33/1/92 5/1/65
