# Blender 4.4.1
# www.blender.org
mtllib block.mtl
o Block_Metal_Cube.522
v -0.500000 -0.500000 -0.500000
v -0.500000 0.500000 -0.500000
v 0.500000 -0.500000 -0.500000
v 0.500000 0.500000 -0.500000
v -0.500000 -0.500000 0.500000
v -0.500000 0.500000 0.500000
v 0.500000 -0.500000 0.500000
v 0.500000 0.500000 0.500000
v 0.340536 -0.500000 -0.340536
v 0.340536 -0.500000 0.340536
v -0.340536 -0.500000 0.340536
v -0.340536 -0.500000 -0.340536
v 0.340536 0.500000 0.340536
v 0.340536 0.500000 -0.340536
v -0.340536 0.500000 -0.340536
v -0.340536 0.500000 0.340536
v -0.500000 -0.340536 0.340536
v -0.500000 0.340536 0.340536
v -0.500000 0.340536 -0.340536
v -0.500000 -0.340536 -0.340536
v 0.340536 -0.340536 0.500000
v 0.340536 0.340536 0.500000
v -0.340536 0.340536 0.500000
v -0.340536 -0.340536 0.500000
v 0.500000 -0.340536 -0.340536
v 0.500000 0.340536 -0.340536
v 0.500000 0.340536 0.340536
v 0.500000 -0.340536 0.340536
v -0.340536 -0.340536 -0.500000
v -0.340536 0.340536 -0.500000
v 0.340536 0.340536 -0.500000
v 0.340536 -0.340536 -0.500000
v 0.280998 -0.467807 0.280999
v 0.280998 -0.467808 -0.280998
v -0.280998 -0.467807 0.280999
v -0.280998 -0.467808 -0.280998
v 0.280998 0.467807 -0.280999
v 0.280998 0.467808 0.280998
v -0.280998 0.467807 -0.280999
v -0.280998 0.467808 0.280998
v -0.467808 0.280999 0.280998
v -0.467808 -0.280998 0.280999
v -0.467807 0.280998 -0.280999
v -0.467807 -0.280999 -0.280998
v 0.280998 0.280999 0.467807
v 0.280998 -0.280998 0.467808
v -0.280998 0.280999 0.467807
v -0.280998 -0.280998 0.467807
v 0.467808 0.280998 -0.280999
v 0.467808 -0.280999 -0.280998
v 0.467807 0.280999 0.280998
v 0.467807 -0.280998 0.280999
v -0.280998 0.280998 -0.467808
v -0.280998 -0.280999 -0.467807
v 0.280998 0.280998 -0.467807
v 0.280998 -0.280999 -0.467807
v -0.442508 -0.412459 0.467822
v -0.442508 -0.412459 0.523230
v -0.433083 -0.389705 0.467822
v -0.433083 -0.389705 0.523230
v -0.410329 -0.380280 0.467822
v -0.410329 -0.380280 0.523230
v -0.387576 -0.389705 0.467822
v -0.387576 -0.389705 0.523230
v -0.378150 -0.412459 0.467822
v -0.378150 -0.412459 0.523230
v -0.387576 -0.435212 0.467822
v -0.387576 -0.435212 0.523230
v -0.410329 -0.444637 0.467822
v -0.410329 -0.444637 0.523230
v -0.433083 -0.435212 0.467822
v -0.433083 -0.435212 0.523230
v -0.412459 0.442508 0.467821
v -0.412459 0.442508 0.523230
v -0.389705 0.433083 0.467821
v -0.389705 0.433083 0.523230
v -0.380280 0.410330 0.467821
v -0.380280 0.410330 0.523230
v -0.389705 0.387576 0.467821
v -0.389705 0.387576 0.523230
v -0.412459 0.378151 0.467821
v -0.412459 0.378151 0.523230
v -0.435212 0.387576 0.467821
v -0.435212 0.387576 0.523230
v -0.444638 0.410330 0.467821
v -0.444638 0.410330 0.523230
v -0.435212 0.433083 0.467821
v -0.435212 0.433083 0.523230
v 0.412459 -0.442508 0.467822
v 0.412459 -0.442508 0.523230
v 0.389705 -0.433083 0.467822
v 0.389705 -0.433083 0.523230
v 0.380280 -0.410329 0.467822
v 0.380280 -0.410329 0.523230
v 0.389705 -0.387575 0.467822
v 0.389705 -0.387575 0.523230
v 0.412459 -0.378150 0.467822
v 0.412459 -0.378150 0.523230
v 0.435212 -0.387575 0.467822
v 0.435212 -0.387575 0.523230
v 0.444638 -0.410329 0.467822
v 0.444638 -0.410329 0.523230
v 0.435212 -0.433083 0.467822
v 0.435212 -0.433083 0.523230
v 0.442508 0.412459 0.467821
v 0.442508 0.412459 0.523230
v 0.433083 0.389705 0.467821
v 0.433083 0.389705 0.523230
v 0.410329 0.380281 0.467821
v 0.410329 0.380281 0.523230
v 0.387576 0.389705 0.467821
v 0.387576 0.389705 0.523230
v 0.378150 0.412459 0.467821
v 0.378150 0.412459 0.523230
v 0.387576 0.435213 0.467821
v 0.387576 0.435213 0.523230
v 0.410329 0.444638 0.467821
v 0.410329 0.444638 0.523230
v 0.433083 0.435213 0.467821
v 0.433083 0.435213 0.523230
v -0.442508 0.412459 -0.467822
v -0.442508 0.412459 -0.523230
v -0.433083 0.389705 -0.467822
v -0.433083 0.389705 -0.523230
v -0.410329 0.380280 -0.467822
v -0.410329 0.380280 -0.523230
v -0.387576 0.389705 -0.467822
v -0.387576 0.389705 -0.523230
v -0.378150 0.412459 -0.467822
v -0.378150 0.412459 -0.523230
v -0.387576 0.435212 -0.467822
v -0.387576 0.435212 -0.523230
v -0.410329 0.444637 -0.467822
v -0.410329 0.444637 -0.523230
v -0.433083 0.435212 -0.467822
v -0.433083 0.435212 -0.523230
v -0.412459 -0.442508 -0.467821
v -0.412459 -0.442508 -0.523230
v -0.389705 -0.433083 -0.467821
v -0.389705 -0.433083 -0.523230
v -0.380280 -0.410330 -0.467821
v -0.380280 -0.410330 -0.523230
v -0.389705 -0.387576 -0.467821
v -0.389705 -0.387576 -0.523230
v -0.412459 -0.378151 -0.467821
v -0.412459 -0.378151 -0.523230
v -0.435212 -0.387576 -0.467821
v -0.435212 -0.387576 -0.523230
v -0.444638 -0.410330 -0.467821
v -0.444638 -0.410330 -0.523230
v -0.435212 -0.433084 -0.467821
v -0.435212 -0.433084 -0.523230
v 0.412459 0.442508 -0.467821
v 0.412459 0.442508 -0.523230
v 0.389705 0.433083 -0.467821
v 0.389705 0.433083 -0.523230
v 0.380280 0.410329 -0.467821
v 0.380280 0.410329 -0.523230
v 0.389705 0.387575 -0.467821
v 0.389705 0.387575 -0.523230
v 0.412459 0.378150 -0.467821
v 0.412459 0.378150 -0.523230
v 0.435212 0.387575 -0.467821
v 0.435212 0.387575 -0.523230
v 0.444638 0.410329 -0.467821
v 0.444638 0.410329 -0.523230
v 0.435212 0.433083 -0.467821
v 0.435212 0.433083 -0.523230
v 0.442508 -0.412459 -0.467821
v 0.442508 -0.412459 -0.523230
v 0.433083 -0.389705 -0.467821
v 0.433083 -0.389705 -0.523230
v 0.410329 -0.380281 -0.467821
v 0.410329 -0.380281 -0.523230
v 0.387576 -0.389705 -0.467821
v 0.387576 -0.389705 -0.523230
v 0.378150 -0.412459 -0.467821
v 0.378150 -0.412459 -0.523230
v 0.387576 -0.435213 -0.467821
v 0.387576 -0.435213 -0.523230
v 0.410329 -0.444638 -0.467821
v 0.410329 -0.444638 -0.523230
v 0.433083 -0.435213 -0.467821
v 0.433083 -0.435213 -0.523230
v -0.467822 0.412459 0.442508
v -0.523230 0.412459 0.442508
v -0.467822 0.389705 0.433083
v -0.523230 0.389705 0.433083
v -0.467822 0.380280 0.410329
v -0.523230 0.380280 0.410329
v -0.467822 0.389705 0.387575
v -0.523230 0.389705 0.387575
v -0.467822 0.412459 0.378150
v -0.523230 0.412459 0.378150
v -0.467822 0.435213 0.387575
v -0.523230 0.435213 0.387575
v -0.467822 0.444638 0.410329
v -0.523230 0.444638 0.410329
v -0.467822 0.435213 0.433083
v -0.523230 0.435213 0.433083
v -0.467821 -0.442508 0.412459
v -0.523229 -0.442508 0.412459
v -0.467821 -0.433083 0.389705
v -0.523229 -0.433083 0.389705
v -0.467821 -0.410329 0.380281
v -0.523229 -0.410329 0.380281
v -0.467821 -0.387575 0.389705
v -0.523230 -0.387576 0.389705
v -0.467821 -0.378151 0.412459
v -0.523230 -0.378151 0.412459
v -0.467821 -0.387575 0.435213
v -0.523230 -0.387576 0.435213
v -0.467821 -0.410329 0.444638
v -0.523230 -0.410329 0.444638
v -0.467821 -0.433083 0.435213
v -0.523229 -0.433083 0.435213
v -0.467822 0.442507 -0.412459
v -0.523230 0.442507 -0.412459
v -0.467822 0.433082 -0.389705
v -0.523230 0.433082 -0.389705
v -0.467822 0.410329 -0.380281
v -0.523230 0.410329 -0.380281
v -0.467822 0.387575 -0.389705
v -0.523230 0.387575 -0.389705
v -0.467822 0.378150 -0.412459
v -0.523230 0.378150 -0.412459
v -0.467822 0.387575 -0.435213
v -0.523230 0.387575 -0.435213
v -0.467822 0.410329 -0.444638
v -0.523230 0.410329 -0.444638
v -0.467822 0.433082 -0.435213
v -0.523230 0.433082 -0.435213
v -0.467821 -0.412460 -0.442507
v -0.523229 -0.412460 -0.442507
v -0.467821 -0.389706 -0.433083
v -0.523229 -0.389706 -0.433083
v -0.467821 -0.380281 -0.410329
v -0.523229 -0.380281 -0.410329
v -0.467821 -0.389706 -0.387575
v -0.523229 -0.389706 -0.387575
v -0.467821 -0.412460 -0.378150
v -0.523229 -0.412460 -0.378150
v -0.467821 -0.435213 -0.387575
v -0.523229 -0.435213 -0.387575
v -0.467821 -0.444638 -0.410329
v -0.523229 -0.444638 -0.410329
v -0.467821 -0.435213 -0.433083
v -0.523229 -0.435213 -0.433083
v -0.412459 -0.467821 0.442508
v -0.412459 -0.523230 0.442508
v -0.389705 -0.467821 0.433083
v -0.389705 -0.523230 0.433083
v -0.380280 -0.467821 0.410329
v -0.380280 -0.523230 0.410329
v -0.389705 -0.467821 0.387576
v -0.389705 -0.523230 0.387576
v -0.412459 -0.467821 0.378151
v -0.412459 -0.523230 0.378151
v -0.435212 -0.467821 0.387576
v -0.435213 -0.523230 0.387576
v -0.444638 -0.467821 0.410329
v -0.444638 -0.523230 0.410329
v -0.435212 -0.467821 0.433083
v -0.435213 -0.523230 0.433083
v 0.442508 -0.467821 0.412459
v 0.442508 -0.523230 0.412459
v 0.433083 -0.467821 0.389705
v 0.433083 -0.523230 0.389705
v 0.410329 -0.467821 0.380280
v 0.410329 -0.523230 0.380280
v 0.387576 -0.467821 0.389705
v 0.387576 -0.523230 0.389705
v 0.378150 -0.467821 0.412459
v 0.378150 -0.523230 0.412459
v 0.387576 -0.467821 0.435213
v 0.387576 -0.523230 0.435213
v 0.410329 -0.467821 0.444638
v 0.410329 -0.523230 0.444638
v 0.433083 -0.467821 0.435213
v 0.433083 -0.523230 0.435213
v -0.442508 -0.467821 -0.412459
v -0.442508 -0.523230 -0.412459
v -0.433083 -0.467821 -0.389705
v -0.433083 -0.523229 -0.389705
v -0.410329 -0.467821 -0.380280
v -0.410329 -0.523229 -0.380280
v -0.387576 -0.467821 -0.389705
v -0.387576 -0.523229 -0.389705
v -0.378150 -0.467821 -0.412459
v -0.378150 -0.523230 -0.412459
v -0.387576 -0.467821 -0.435213
v -0.387576 -0.523230 -0.435213
v -0.410329 -0.467821 -0.444637
v -0.410329 -0.523230 -0.444637
v -0.433083 -0.467821 -0.435213
v -0.433083 -0.523230 -0.435213
v 0.412459 -0.467821 -0.442508
v 0.412459 -0.523230 -0.442508
v 0.389705 -0.467821 -0.433083
v 0.389705 -0.523230 -0.433083
v 0.380280 -0.467821 -0.410329
v 0.380280 -0.523230 -0.410329
v 0.389705 -0.467821 -0.387575
v 0.389705 -0.523230 -0.387575
v 0.412459 -0.467822 -0.378150
v 0.412459 -0.523230 -0.378150
v 0.435212 -0.467822 -0.387575
v 0.435212 -0.523230 -0.387575
v 0.444638 -0.467821 -0.410329
v 0.444638 -0.523230 -0.410329
v 0.435212 -0.467821 -0.433083
v 0.435212 -0.523230 -0.433083
v 0.467822 -0.412459 0.442508
v 0.523230 -0.412459 0.442508
v 0.467822 -0.389705 0.433083
v 0.523230 -0.389705 0.433083
v 0.467822 -0.380280 0.410329
v 0.523230 -0.380280 0.410329
v 0.467822 -0.389705 0.387576
v 0.523230 -0.389705 0.387576
v 0.467822 -0.412459 0.378151
v 0.523230 -0.412459 0.378151
v 0.467822 -0.435213 0.387576
v 0.523230 -0.435213 0.387576
v 0.467822 -0.444637 0.410329
v 0.523230 -0.444637 0.410329
v 0.467822 -0.435213 0.433083
v 0.523230 -0.435213 0.433083
v 0.467822 0.442508 0.412459
v 0.523230 0.442508 0.412459
v 0.467822 0.433083 0.389705
v 0.523230 0.433083 0.389705
v 0.467822 0.410329 0.380280
v 0.523230 0.410329 0.380280
v 0.467822 0.387576 0.389705
v 0.523230 0.387576 0.389705
v 0.467822 0.378151 0.412459
v 0.523230 0.378151 0.412459
v 0.467822 0.387576 0.435212
v 0.523230 0.387576 0.435212
v 0.467822 0.410329 0.444637
v 0.523230 0.410329 0.444637
v 0.467822 0.433083 0.435212
v 0.523230 0.433083 0.435212
v 0.467821 -0.442508 -0.412459
v 0.523229 -0.442508 -0.412459
v 0.467821 -0.433083 -0.389705
v 0.523229 -0.433083 -0.389705
v 0.467821 -0.410329 -0.380280
v 0.523229 -0.410329 -0.380280
v 0.467821 -0.387576 -0.389705
v 0.523229 -0.387576 -0.389705
v 0.467821 -0.378151 -0.412459
v 0.523229 -0.378151 -0.412459
v 0.467821 -0.387576 -0.435212
v 0.523229 -0.387576 -0.435212
v 0.467821 -0.410329 -0.444637
v 0.523229 -0.410329 -0.444637
v 0.467821 -0.433083 -0.435212
v 0.523229 -0.433083 -0.435212
v 0.467822 0.412459 -0.442508
v 0.523230 0.412459 -0.442508
v 0.467822 0.389705 -0.433083
v 0.523230 0.389705 -0.433083
v 0.467822 0.380280 -0.410329
v 0.523230 0.380280 -0.410329
v 0.467822 0.389705 -0.387576
v 0.523230 0.389705 -0.387576
v 0.467822 0.412459 -0.378151
v 0.523230 0.412459 -0.378151
v 0.467822 0.435212 -0.387576
v 0.523230 0.435212 -0.387576
v 0.467822 0.444637 -0.410329
v 0.523230 0.444637 -0.410329
v 0.467822 0.435212 -0.433083
v 0.523230 0.435212 -0.433083
v 0.412459 0.467822 0.442508
v 0.412459 0.523230 0.442508
v 0.389705 0.467822 0.433083
v 0.389705 0.523230 0.433083
v 0.380280 0.467822 0.410329
v 0.380280 0.523230 0.410329
v 0.389705 0.467822 0.387575
v 0.389705 0.523230 0.387575
v 0.412459 0.467822 0.378150
v 0.412459 0.523230 0.378150
v 0.435212 0.467822 0.387575
v 0.435212 0.523230 0.387575
v 0.444638 0.467822 0.410329
v 0.444638 0.523230 0.410329
v 0.435212 0.467822 0.433083
v 0.435212 0.523230 0.433083
v -0.442508 0.467822 0.412459
v -0.442508 0.523230 0.412459
v -0.433083 0.467822 0.389705
v -0.433083 0.523230 0.389705
v -0.410329 0.467822 0.380280
v -0.410329 0.523230 0.380280
v -0.387576 0.467822 0.389705
v -0.387576 0.523230 0.389705
v -0.378151 0.467822 0.412459
v -0.378151 0.523230 0.412459
v -0.387576 0.467822 0.435212
v -0.387576 0.523230 0.435212
v -0.410329 0.467822 0.444637
v -0.410329 0.523230 0.444637
v -0.433083 0.467822 0.435212
v -0.433083 0.523230 0.435212
v 0.442508 0.467821 -0.412459
v 0.442508 0.523230 -0.412459
v 0.433083 0.467821 -0.389705
v 0.433083 0.523230 -0.389705
v 0.410329 0.467821 -0.380280
v 0.410329 0.523230 -0.380280
v 0.387576 0.467821 -0.389705
v 0.387576 0.523230 -0.389705
v 0.378150 0.467821 -0.412459
v 0.378150 0.523230 -0.412459
v 0.387576 0.467821 -0.435213
v 0.387576 0.523230 -0.435213
v 0.410329 0.467821 -0.444638
v 0.410329 0.523230 -0.444638
v 0.433083 0.467821 -0.435213
v 0.433083 0.523230 -0.435213
v -0.412459 0.467821 -0.442508
v -0.412459 0.523230 -0.442508
v -0.389705 0.467821 -0.433083
v -0.389705 0.523230 -0.433083
v -0.380280 0.467821 -0.410329
v -0.380280 0.523230 -0.410329
v -0.389705 0.467821 -0.387576
v -0.389705 0.523230 -0.387576
v -0.412459 0.467821 -0.378151
v -0.412459 0.523230 -0.378151
v -0.435212 0.467821 -0.387576
v -0.435212 0.523230 -0.387576
v -0.444638 0.467821 -0.410329
v -0.444638 0.523230 -0.410329
v -0.435212 0.467821 -0.433083
v -0.435212 0.523230 -0.433083
vn -0.0000 -0.0000 -1.0000
vn 1.0000 -0.0000 -0.0000
vn -0.0000 -0.0000 1.0000
vn -1.0000 -0.0000 -0.0000
vn -0.0000 1.0000 -0.0000
vn -0.0000 -1.0000 -0.0000
vn 0.4756 0.8796 -0.0000
vn 0.8796 -0.0000 0.4756
vn -0.8796 -0.4756 -0.0000
vn 0.4756 -0.8796 -0.0000
vn -0.4756 -0.0000 0.8796
vn -0.0000 0.8796 0.4756
vn -0.0000 -0.4756 0.8796
vn 0.4756 -0.0000 -0.8796
vn -0.0000 -0.8796 0.4756
vn -0.8796 -0.0000 0.4756
vn 0.8796 -0.4756 -0.0000
vn -0.0000 0.8796 -0.4756
vn 0.4756 -0.0000 0.8796
vn -0.0000 -0.4756 -0.8796
vn -0.8796 0.4756 -0.0000
vn 0.8796 -0.0000 -0.4756
vn -0.0000 0.4756 0.8796
vn -0.4756 -0.0000 -0.8796
vn 0.8796 0.4756 -0.0000
vn -0.0000 0.4756 -0.8796
vn -0.4756 -0.8796 -0.0000
vn -0.4756 0.8796 -0.0000
vn -0.0000 -0.8796 -0.4756
vn -0.8796 -0.0000 -0.4756
vn -0.9239 0.3827 -0.0000
vn -0.3827 0.9239 -0.0000
vn 0.3827 0.9239 -0.0000
vn 0.9239 0.3827 -0.0000
vn 0.9239 -0.3827 -0.0000
vn 0.3827 -0.9239 -0.0000
vn -0.3827 -0.9239 -0.0000
vn -0.9239 -0.3827 -0.0000
vn -0.0000 -0.3827 0.9239
vn -0.0000 -0.9239 0.3827
vn -0.0000 -0.9239 -0.3827
vn -0.0000 -0.3827 -0.9239
vn -0.0000 0.3827 -0.9239
vn -0.0000 0.9239 -0.3827
vn -0.0000 0.9239 0.3827
vn -0.0000 0.3827 0.9239
vn 0.3827 -0.0000 0.9239
vn 0.9239 -0.0000 0.3827
vn 0.9239 -0.0000 -0.3827
vn 0.3827 -0.0000 -0.9239
vn -0.3827 -0.0000 -0.9239
vn -0.9239 -0.0000 -0.3827
vn -0.9239 -0.0000 0.3827
vn -0.3827 -0.0000 0.9239
vt 0.017578 0.826172
vt 0.011719 0.797852
s 1
usemtl Atlas
f 53/1/1 56/1/1 54/1/1
f 49/1/2 52/1/2 50/1/2
f 45/1/3 48/1/3 46/1/3
f 41/1/4 44/1/4 42/1/4
f 37/1/5 40/1/5 38/1/5
f 33/1/6 36/1/6 34/1/6
f 16/2/7 39/2/7 15/2/7
f 10/2/6 3/2/6 7/2/6
f 11/2/6 7/2/6 5/2/6
f 12/2/6 5/2/6 1/2/6
f 9/2/6 1/2/6 3/2/6
f 26/2/8 50/2/8 25/2/8
f 14/2/5 8/2/5 4/2/5
f 15/2/5 4/2/5 2/2/5
f 16/2/5 2/2/5 6/2/5
f 13/2/5 6/2/5 8/2/5
f 19/2/9 41/2/9 18/2/9
f 18/2/4 5/2/4 6/2/4
f 19/2/4 6/2/4 2/2/4
f 20/2/4 2/2/4 1/2/4
f 17/2/4 1/2/4 5/2/4
f 12/2/10 35/2/10 11/2/10
f 22/2/3 7/2/3 8/2/3
f 23/2/3 8/2/3 6/2/3
f 24/2/3 6/2/3 5/2/3
f 21/2/3 5/2/3 7/2/3
f 22/2/11 46/2/11 21/2/11
f 26/2/2 3/2/2 4/2/2
f 27/2/2 4/2/2 8/2/2
f 28/2/2 8/2/2 7/2/2
f 25/2/2 7/2/2 3/2/2
f 15/2/12 37/2/12 14/2/12
f 30/2/1 1/2/1 2/2/1
f 31/2/1 2/2/1 4/2/1
f 32/2/1 4/2/1 3/2/1
f 29/2/1 3/2/1 1/2/1
f 23/2/13 45/2/13 22/2/13
f 30/2/14 54/2/14 29/2/14
f 9/2/15 36/2/15 12/2/15
f 20/2/16 43/2/16 19/2/16
f 27/2/17 49/2/17 26/2/17
f 13/2/18 40/2/18 16/2/18
f 24/2/19 47/2/19 23/2/19
f 31/2/20 53/2/20 30/2/20
f 20/2/21 42/2/21 44/2/21
f 28/2/22 51/2/22 27/2/22
f 24/2/23 46/2/23 48/2/23
f 32/2/24 55/2/24 31/2/24
f 28/2/25 50/2/25 52/2/25
f 32/2/26 54/2/26 56/2/26
f 10/2/27 34/2/27 9/2/27
f 14/2/28 38/2/28 13/2/28
f 11/2/29 33/2/29 10/2/29
f 18/2/30 42/2/30 17/2/30
f 58/1/31 59/1/31 57/1/31
f 60/1/32 61/1/32 59/1/32
f 62/1/33 63/1/33 61/1/33
f 64/1/34 65/1/34 63/1/34
f 66/1/35 67/1/35 65/1/35
f 68/1/36 69/1/36 67/1/36
f 66/1/3 64/1/3 62/1/3
f 70/1/37 71/1/37 69/1/37
f 72/1/38 57/1/38 71/1/38
f 74/1/33 75/1/33 73/1/33
f 76/1/34 77/1/34 75/1/34
f 78/1/35 79/1/35 77/1/35
f 80/1/36 81/1/36 79/1/36
f 82/1/37 83/1/37 81/1/37
f 84/1/38 85/1/38 83/1/38
f 82/1/3 80/1/3 78/1/3
f 86/1/31 87/1/31 85/1/31
f 88/1/32 73/1/32 87/1/32
f 90/1/37 91/1/37 89/1/37
f 92/1/38 93/1/38 91/1/38
f 94/1/31 95/1/31 93/1/31
f 96/1/32 97/1/32 95/1/32
f 98/1/33 99/1/33 97/1/33
f 100/1/34 101/1/34 99/1/34
f 96/1/3 94/1/3 102/1/3
f 102/1/35 103/1/35 101/1/35
f 104/1/36 89/1/36 103/1/36
f 106/1/35 107/1/35 105/1/35
f 108/1/36 109/1/36 107/1/36
f 110/1/37 111/1/37 109/1/37
f 112/1/38 113/1/38 111/1/38
f 114/1/31 115/1/31 113/1/31
f 116/1/32 117/1/32 115/1/32
f 118/1/3 114/1/3 110/1/3
f 118/1/33 119/1/33 117/1/33
f 120/1/34 105/1/34 119/1/34
f 122/1/38 123/1/38 121/1/38
f 124/1/37 125/1/37 123/1/37
f 126/1/36 127/1/36 125/1/36
f 128/1/35 129/1/35 127/1/35
f 130/1/34 131/1/34 129/1/34
f 132/1/33 133/1/33 131/1/33
f 130/1/1 128/1/1 126/1/1
f 134/1/32 135/1/32 133/1/32
f 136/1/31 121/1/31 135/1/31
f 138/1/36 139/1/36 137/1/36
f 140/1/35 141/1/35 139/1/35
f 142/1/34 143/1/34 141/1/34
f 144/1/33 145/1/33 143/1/33
f 146/1/32 147/1/32 145/1/32
f 148/1/31 149/1/31 147/1/31
f 138/1/1 150/1/1 146/1/1
f 150/1/38 151/1/38 149/1/38
f 152/1/37 137/1/37 151/1/37
f 154/1/32 155/1/32 153/1/32
f 156/1/31 157/1/31 155/1/31
f 158/1/38 159/1/38 157/1/38
f 160/1/37 161/1/37 159/1/37
f 162/1/36 163/1/36 161/1/36
f 164/1/35 165/1/35 163/1/35
f 162/1/1 160/1/1 158/1/1
f 166/1/34 167/1/34 165/1/34
f 168/1/33 153/1/33 167/1/33
f 170/1/34 171/1/34 169/1/34
f 172/1/33 173/1/33 171/1/33
f 174/1/32 175/1/32 173/1/32
f 176/1/31 177/1/31 175/1/31
f 178/1/38 179/1/38 177/1/38
f 180/1/37 181/1/37 179/1/37
f 178/1/1 176/1/1 174/1/1
f 182/1/36 183/1/36 181/1/36
f 184/1/35 169/1/35 183/1/35
f 186/1/39 187/1/39 185/1/39
f 188/1/40 189/1/40 187/1/40
f 190/1/41 191/1/41 189/1/41
f 191/1/42 194/1/42 193/1/42
f 193/1/43 196/1/43 195/1/43
f 196/1/44 197/1/44 195/1/44
f 194/1/4 192/1/4 190/1/4
f 198/1/45 199/1/45 197/1/45
f 200/1/46 185/1/46 199/1/46
f 202/1/41 203/1/41 201/1/41
f 204/1/42 205/1/42 203/1/42
f 206/1/43 207/1/43 205/1/43
f 207/1/44 210/1/44 209/1/44
f 210/1/45 211/1/45 209/1/45
f 212/1/46 213/1/46 211/1/46
f 206/1/4 202/1/4 214/1/4
f 213/1/39 216/1/39 215/1/39
f 216/1/40 201/1/40 215/1/40
f 218/1/45 219/1/45 217/1/45
f 220/1/46 221/1/46 219/1/46
f 222/1/39 223/1/39 221/1/39
f 224/1/40 225/1/40 223/1/40
f 225/1/41 228/1/41 227/1/41
f 228/1/42 229/1/42 227/1/42
f 226/1/4 224/1/4 222/1/4
f 230/1/43 231/1/43 229/1/43
f 232/1/44 217/1/44 231/1/44
f 234/1/43 235/1/43 233/1/43
f 236/1/44 237/1/44 235/1/44
f 238/1/45 239/1/45 237/1/45
f 240/1/46 241/1/46 239/1/46
f 242/1/39 243/1/39 241/1/39
f 244/1/40 245/1/40 243/1/40
f 234/1/4 246/1/4 242/1/4
f 246/1/41 247/1/41 245/1/41
f 248/1/42 233/1/42 247/1/42
f 250/1/47 251/1/47 249/1/47
f 252/1/48 253/1/48 251/1/48
f 254/1/49 255/1/49 253/1/49
f 256/1/50 257/1/50 255/1/50
f 258/1/51 259/1/51 257/1/51
f 260/1/52 261/1/52 259/1/52
f 262/1/6 258/1/6 254/1/6
f 261/1/53 264/1/53 263/1/53
f 263/1/54 250/1/54 249/1/54
f 266/1/49 267/1/49 265/1/49
f 268/1/50 269/1/50 267/1/50
f 270/1/51 271/1/51 269/1/51
f 272/1/52 273/1/52 271/1/52
f 274/1/53 275/1/53 273/1/53
f 275/1/54 278/1/54 277/1/54
f 274/1/6 272/1/6 270/1/6
f 277/1/47 280/1/47 279/1/47
f 280/1/48 265/1/48 279/1/48
f 282/1/53 283/1/53 281/1/53
f 284/1/54 285/1/54 283/1/54
f 286/1/47 287/1/47 285/1/47
f 288/1/48 289/1/48 287/1/48
f 290/1/49 291/1/49 289/1/49
f 292/1/50 293/1/50 291/1/50
f 288/1/6 286/1/6 294/1/6
f 294/1/51 295/1/51 293/1/51
f 296/1/52 281/1/52 295/1/52
f 298/1/51 299/1/51 297/1/51
f 300/1/52 301/1/52 299/1/52
f 301/1/53 304/1/53 303/1/53
f 304/1/54 305/1/54 303/1/54
f 306/1/47 307/1/47 305/1/47
f 307/1/48 310/1/48 309/1/48
f 304/1/6 302/1/6 310/1/6
f 310/1/49 311/1/49 309/1/49
f 312/1/50 297/1/50 311/1/50
f 314/1/46 315/1/46 313/1/46
f 316/1/45 317/1/45 315/1/45
f 318/1/44 319/1/44 317/1/44
f 320/1/43 321/1/43 319/1/43
f 322/1/42 323/1/42 321/1/42
f 324/1/41 325/1/41 323/1/41
f 320/1/2 318/1/2 326/1/2
f 326/1/40 327/1/40 325/1/40
f 328/1/39 313/1/39 327/1/39
f 330/1/44 331/1/44 329/1/44
f 332/1/43 333/1/43 331/1/43
f 334/1/42 335/1/42 333/1/42
f 336/1/41 337/1/41 335/1/41
f 338/1/40 339/1/40 337/1/40
f 340/1/39 341/1/39 339/1/39
f 338/1/2 336/1/2 334/1/2
f 342/1/46 343/1/46 341/1/46
f 344/1/45 329/1/45 343/1/45
f 346/1/40 347/1/40 345/1/40
f 348/1/39 349/1/39 347/1/39
f 350/1/46 351/1/46 349/1/46
f 352/1/45 353/1/45 351/1/45
f 354/1/44 355/1/44 353/1/44
f 356/1/43 357/1/43 355/1/43
f 354/1/2 352/1/2 350/1/2
f 358/1/42 359/1/42 357/1/42
f 360/1/41 345/1/41 359/1/41
f 362/1/42 363/1/42 361/1/42
f 364/1/41 365/1/41 363/1/41
f 366/1/40 367/1/40 365/1/40
f 368/1/39 369/1/39 367/1/39
f 370/1/46 371/1/46 369/1/46
f 372/1/45 373/1/45 371/1/45
f 366/1/2 362/1/2 374/1/2
f 374/1/44 375/1/44 373/1/44
f 376/1/43 361/1/43 375/1/43
f 378/1/54 379/1/54 377/1/54
f 380/1/53 381/1/53 379/1/53
f 382/1/52 383/1/52 381/1/52
f 384/1/51 385/1/51 383/1/51
f 386/1/50 387/1/50 385/1/50
f 388/1/49 389/1/49 387/1/49
f 386/1/5 384/1/5 382/1/5
f 390/1/48 391/1/48 389/1/48
f 392/1/47 377/1/47 391/1/47
f 394/1/52 395/1/52 393/1/52
f 396/1/51 397/1/51 395/1/51
f 398/1/50 399/1/50 397/1/50
f 400/1/49 401/1/49 399/1/49
f 402/1/48 403/1/48 401/1/48
f 404/1/47 405/1/47 403/1/47
f 394/1/5 406/1/5 402/1/5
f 406/1/54 407/1/54 405/1/54
f 408/1/53 393/1/53 407/1/53
f 410/1/48 411/1/48 409/1/48
f 412/1/47 413/1/47 411/1/47
f 414/1/54 415/1/54 413/1/54
f 416/1/53 417/1/53 415/1/53
f 418/1/52 419/1/52 417/1/52
f 420/1/51 421/1/51 419/1/51
f 416/1/5 414/1/5 422/1/5
f 422/1/50 423/1/50 421/1/50
f 424/1/49 409/1/49 423/1/49
f 426/1/50 427/1/50 425/1/50
f 428/1/49 429/1/49 427/1/49
f 430/1/48 431/1/48 429/1/48
f 432/1/47 433/1/47 431/1/47
f 434/1/54 435/1/54 433/1/54
f 436/1/53 437/1/53 435/1/53
f 434/1/5 432/1/5 430/1/5
f 438/1/52 439/1/52 437/1/52
f 440/1/51 425/1/51 439/1/51
f 53/1/1 55/1/1 56/1/1
f 49/1/2 51/1/2 52/1/2
f 45/1/3 47/1/3 48/1/3
f 41/1/4 43/1/4 44/1/4
f 37/1/5 39/1/5 40/1/5
f 33/1/6 35/1/6 36/1/6
f 16/2/7 40/2/7 39/2/7
f 10/2/6 9/2/6 3/2/6
f 11/2/6 10/2/6 7/2/6
f 12/2/6 11/2/6 5/2/6
f 9/2/6 12/2/6 1/2/6
f 26/2/8 49/2/8 50/2/8
f 14/2/5 13/2/5 8/2/5
f 15/2/5 14/2/5 4/2/5
f 16/2/5 15/2/5 2/2/5
f 13/2/5 16/2/5 6/2/5
f 19/2/9 43/2/9 41/2/9
f 18/2/4 17/2/4 5/2/4
f 19/2/4 18/2/4 6/2/4
f 20/2/4 19/2/4 2/2/4
f 17/2/4 20/2/4 1/2/4
f 12/2/10 36/2/10 35/2/10
f 22/2/3 21/2/3 7/2/3
f 23/2/3 22/2/3 8/2/3
f 24/2/3 23/2/3 6/2/3
f 21/2/3 24/2/3 5/2/3
f 22/2/11 45/2/11 46/2/11
f 26/2/2 25/2/2 3/2/2
f 27/2/2 26/2/2 4/2/2
f 28/2/2 27/2/2 8/2/2
f 25/2/2 28/2/2 7/2/2
f 15/2/12 39/2/12 37/2/12
f 30/2/1 29/2/1 1/2/1
f 31/2/1 30/2/1 2/2/1
f 32/2/1 31/2/1 4/2/1
f 29/2/1 32/2/1 3/2/1
f 23/2/13 47/2/13 45/2/13
f 30/2/14 53/2/14 54/2/14
f 9/2/15 34/2/15 36/2/15
f 20/2/16 44/2/16 43/2/16
f 27/2/17 51/2/17 49/2/17
f 13/2/18 38/2/18 40/2/18
f 24/2/19 48/2/19 47/2/19
f 31/2/20 55/2/20 53/2/20
f 20/2/21 17/2/21 42/2/21
f 28/2/22 52/2/22 51/2/22
f 24/2/23 21/2/23 46/2/23
f 32/2/24 56/2/24 55/2/24
f 28/2/25 25/2/25 50/2/25
f 32/2/26 29/2/26 54/2/26
f 10/2/27 33/2/27 34/2/27
f 14/2/28 37/2/28 38/2/28
f 11/2/29 35/2/29 33/2/29
f 18/2/30 41/2/30 42/2/30
f 58/1/31 60/1/31 59/1/31
f 60/1/32 62/1/32 61/1/32
f 62/1/33 64/1/33 63/1/33
f 64/1/34 66/1/34 65/1/34
f 66/1/35 68/1/35 67/1/35
f 68/1/36 70/1/36 69/1/36
f 62/1/3 60/1/3 58/1/3
f 58/1/3 72/1/3 62/1/3
f 72/1/3 70/1/3 62/1/3
f 70/1/3 68/1/3 62/1/3
f 68/1/3 66/1/3 62/1/3
f 70/1/37 72/1/37 71/1/37
f 72/1/38 58/1/38 57/1/38
f 74/1/33 76/1/33 75/1/33
f 76/1/34 78/1/34 77/1/34
f 78/1/35 80/1/35 79/1/35
f 80/1/36 82/1/36 81/1/36
f 82/1/37 84/1/37 83/1/37
f 84/1/38 86/1/38 85/1/38
f 78/1/3 76/1/3 74/1/3
f 74/1/3 88/1/3 78/1/3
f 88/1/3 86/1/3 78/1/3
f 86/1/3 84/1/3 78/1/3
f 84/1/3 82/1/3 78/1/3
f 86/1/31 88/1/31 87/1/31
f 88/1/32 74/1/32 73/1/32
f 90/1/37 92/1/37 91/1/37
f 92/1/38 94/1/38 93/1/38
f 94/1/31 96/1/31 95/1/31
f 96/1/32 98/1/32 97/1/32
f 98/1/33 100/1/33 99/1/33
f 100/1/34 102/1/34 101/1/34
f 94/1/3 92/1/3 90/1/3
f 90/1/3 104/1/3 94/1/3
f 104/1/3 102/1/3 94/1/3
f 102/1/3 100/1/3 98/1/3
f 98/1/3 96/1/3 102/1/3
f 102/1/35 104/1/35 103/1/35
f 104/1/36 90/1/36 89/1/36
f 106/1/35 108/1/35 107/1/35
f 108/1/36 110/1/36 109/1/36
f 110/1/37 112/1/37 111/1/37
f 112/1/38 114/1/38 113/1/38
f 114/1/31 116/1/31 115/1/31
f 116/1/32 118/1/32 117/1/32
f 110/1/3 108/1/3 106/1/3
f 106/1/3 120/1/3 118/1/3
f 118/1/3 116/1/3 114/1/3
f 114/1/3 112/1/3 110/1/3
f 110/1/3 106/1/3 118/1/3
f 118/1/33 120/1/33 119/1/33
f 120/1/34 106/1/34 105/1/34
f 122/1/38 124/1/38 123/1/38
f 124/1/37 126/1/37 125/1/37
f 126/1/36 128/1/36 127/1/36
f 128/1/35 130/1/35 129/1/35
f 130/1/34 132/1/34 131/1/34
f 132/1/33 134/1/33 133/1/33
f 126/1/1 124/1/1 122/1/1
f 122/1/1 136/1/1 126/1/1
f 136/1/1 134/1/1 126/1/1
f 134/1/1 132/1/1 126/1/1
f 132/1/1 130/1/1 126/1/1
f 134/1/32 136/1/32 135/1/32
f 136/1/31 122/1/31 121/1/31
f 138/1/36 140/1/36 139/1/36
f 140/1/35 142/1/35 141/1/35
f 142/1/34 144/1/34 143/1/34
f 144/1/33 146/1/33 145/1/33
f 146/1/32 148/1/32 147/1/32
f 148/1/31 150/1/31 149/1/31
f 142/1/1 140/1/1 138/1/1
f 138/1/1 152/1/1 150/1/1
f 150/1/1 148/1/1 146/1/1
f 146/1/1 144/1/1 142/1/1
f 142/1/1 138/1/1 146/1/1
f 150/1/38 152/1/38 151/1/38
f 152/1/37 138/1/37 137/1/37
f 154/1/32 156/1/32 155/1/32
f 156/1/31 158/1/31 157/1/31
f 158/1/38 160/1/38 159/1/38
f 160/1/37 162/1/37 161/1/37
f 162/1/36 164/1/36 163/1/36
f 164/1/35 166/1/35 165/1/35
f 158/1/1 156/1/1 154/1/1
f 154/1/1 168/1/1 158/1/1
f 168/1/1 166/1/1 158/1/1
f 166/1/1 164/1/1 158/1/1
f 164/1/1 162/1/1 158/1/1
f 166/1/34 168/1/34 167/1/34
f 168/1/33 154/1/33 153/1/33
f 170/1/34 172/1/34 171/1/34
f 172/1/33 174/1/33 173/1/33
f 174/1/32 176/1/32 175/1/32
f 176/1/31 178/1/31 177/1/31
f 178/1/38 180/1/38 179/1/38
f 180/1/37 182/1/37 181/1/37
f 174/1/1 172/1/1 170/1/1
f 170/1/1 184/1/1 174/1/1
f 184/1/1 182/1/1 174/1/1
f 182/1/1 180/1/1 174/1/1
f 180/1/1 178/1/1 174/1/1
f 182/1/36 184/1/36 183/1/36
f 184/1/35 170/1/35 169/1/35
f 186/1/39 188/1/39 187/1/39
f 188/1/40 190/1/40 189/1/40
f 190/1/41 192/1/41 191/1/41
f 191/1/42 192/1/42 194/1/42
f 193/1/43 194/1/43 196/1/43
f 196/1/44 198/1/44 197/1/44
f 190/1/4 188/1/4 198/1/4
f 188/1/4 186/1/4 198/1/4
f 186/1/4 200/1/4 198/1/4
f 198/1/4 196/1/4 190/1/4
f 196/1/4 194/1/4 190/1/4
f 198/1/45 200/1/45 199/1/45
f 200/1/46 186/1/46 185/1/46
f 202/1/41 204/1/41 203/1/41
f 204/1/42 206/1/42 205/1/42
f 206/1/43 208/1/43 207/1/43
f 207/1/44 208/1/44 210/1/44
f 210/1/45 212/1/45 211/1/45
f 212/1/46 214/1/46 213/1/46
f 206/1/4 204/1/4 202/1/4
f 202/1/4 216/1/4 214/1/4
f 214/1/4 212/1/4 206/1/4
f 212/1/4 210/1/4 206/1/4
f 210/1/4 208/1/4 206/1/4
f 213/1/39 214/1/39 216/1/39
f 216/1/40 202/1/40 201/1/40
f 218/1/45 220/1/45 219/1/45
f 220/1/46 222/1/46 221/1/46
f 222/1/39 224/1/39 223/1/39
f 224/1/40 226/1/40 225/1/40
f 225/1/41 226/1/41 228/1/41
f 228/1/42 230/1/42 229/1/42
f 222/1/4 220/1/4 218/1/4
f 218/1/4 232/1/4 222/1/4
f 232/1/4 230/1/4 222/1/4
f 230/1/4 228/1/4 222/1/4
f 228/1/4 226/1/4 222/1/4
f 230/1/43 232/1/43 231/1/43
f 232/1/44 218/1/44 217/1/44
f 234/1/43 236/1/43 235/1/43
f 236/1/44 238/1/44 237/1/44
f 238/1/45 240/1/45 239/1/45
f 240/1/46 242/1/46 241/1/46
f 242/1/39 244/1/39 243/1/39
f 244/1/40 246/1/40 245/1/40
f 238/1/4 236/1/4 234/1/4
f 234/1/4 248/1/4 246/1/4
f 246/1/4 244/1/4 242/1/4
f 242/1/4 240/1/4 238/1/4
f 238/1/4 234/1/4 242/1/4
f 246/1/41 248/1/41 247/1/41
f 248/1/42 234/1/42 233/1/42
f 250/1/47 252/1/47 251/1/47
f 252/1/48 254/1/48 253/1/48
f 254/1/49 256/1/49 255/1/49
f 256/1/50 258/1/50 257/1/50
f 258/1/51 260/1/51 259/1/51
f 260/1/52 262/1/52 261/1/52
f 254/1/6 252/1/6 250/1/6
f 250/1/6 264/1/6 262/1/6
f 262/1/6 260/1/6 258/1/6
f 258/1/6 256/1/6 254/1/6
f 254/1/6 250/1/6 262/1/6
f 261/1/53 262/1/53 264/1/53
f 263/1/54 264/1/54 250/1/54
f 266/1/49 268/1/49 267/1/49
f 268/1/50 270/1/50 269/1/50
f 270/1/51 272/1/51 271/1/51
f 272/1/52 274/1/52 273/1/52
f 274/1/53 276/1/53 275/1/53
f 275/1/54 276/1/54 278/1/54
f 270/1/6 268/1/6 278/1/6
f 268/1/6 266/1/6 278/1/6
f 266/1/6 280/1/6 278/1/6
f 278/1/6 276/1/6 270/1/6
f 276/1/6 274/1/6 270/1/6
f 277/1/47 278/1/47 280/1/47
f 280/1/48 266/1/48 265/1/48
f 282/1/53 284/1/53 283/1/53
f 284/1/54 286/1/54 285/1/54
f 286/1/47 288/1/47 287/1/47
f 288/1/48 290/1/48 289/1/48
f 290/1/49 292/1/49 291/1/49
f 292/1/50 294/1/50 293/1/50
f 286/1/6 284/1/6 294/1/6
f 284/1/6 282/1/6 294/1/6
f 282/1/6 296/1/6 294/1/6
f 294/1/6 292/1/6 290/1/6
f 290/1/6 288/1/6 294/1/6
f 294/1/51 296/1/51 295/1/51
f 296/1/52 282/1/52 281/1/52
f 298/1/51 300/1/51 299/1/51
f 300/1/52 302/1/52 301/1/52
f 301/1/53 302/1/53 304/1/53
f 304/1/54 306/1/54 305/1/54
f 306/1/47 308/1/47 307/1/47
f 307/1/48 308/1/48 310/1/48
f 302/1/6 300/1/6 298/1/6
f 298/1/6 312/1/6 302/1/6
f 312/1/6 310/1/6 302/1/6
f 310/1/6 308/1/6 306/1/6
f 306/1/6 304/1/6 310/1/6
f 310/1/49 312/1/49 311/1/49
f 312/1/50 298/1/50 297/1/50
f 314/1/46 316/1/46 315/1/46
f 316/1/45 318/1/45 317/1/45
f 318/1/44 320/1/44 319/1/44
f 320/1/43 322/1/43 321/1/43
f 322/1/42 324/1/42 323/1/42
f 324/1/41 326/1/41 325/1/41
f 318/1/2 316/1/2 326/1/2
f 316/1/2 314/1/2 326/1/2
f 314/1/2 328/1/2 326/1/2
f 326/1/2 324/1/2 322/1/2
f 322/1/2 320/1/2 326/1/2
f 326/1/40 328/1/40 327/1/40
f 328/1/39 314/1/39 313/1/39
f 330/1/44 332/1/44 331/1/44
f 332/1/43 334/1/43 333/1/43
f 334/1/42 336/1/42 335/1/42
f 336/1/41 338/1/41 337/1/41
f 338/1/40 340/1/40 339/1/40
f 340/1/39 342/1/39 341/1/39
f 334/1/2 332/1/2 330/1/2
f 330/1/2 344/1/2 334/1/2
f 344/1/2 342/1/2 334/1/2
f 342/1/2 340/1/2 334/1/2
f 340/1/2 338/1/2 334/1/2
f 342/1/46 344/1/46 343/1/46
f 344/1/45 330/1/45 329/1/45
f 346/1/40 348/1/40 347/1/40
f 348/1/39 350/1/39 349/1/39
f 350/1/46 352/1/46 351/1/46
f 352/1/45 354/1/45 353/1/45
f 354/1/44 356/1/44 355/1/44
f 356/1/43 358/1/43 357/1/43
f 350/1/2 348/1/2 346/1/2
f 346/1/2 360/1/2 350/1/2
f 360/1/2 358/1/2 350/1/2
f 358/1/2 356/1/2 350/1/2
f 356/1/2 354/1/2 350/1/2
f 358/1/42 360/1/42 359/1/42
f 360/1/41 346/1/41 345/1/41
f 362/1/42 364/1/42 363/1/42
f 364/1/41 366/1/41 365/1/41
f 366/1/40 368/1/40 367/1/40
f 368/1/39 370/1/39 369/1/39
f 370/1/46 372/1/46 371/1/46
f 372/1/45 374/1/45 373/1/45
f 366/1/2 364/1/2 362/1/2
f 362/1/2 376/1/2 374/1/2
f 374/1/2 372/1/2 366/1/2
f 372/1/2 370/1/2 366/1/2
f 370/1/2 368/1/2 366/1/2
f 374/1/44 376/1/44 375/1/44
f 376/1/43 362/1/43 361/1/43
f 378/1/54 380/1/54 379/1/54
f 380/1/53 382/1/53 381/1/53
f 382/1/52 384/1/52 383/1/52
f 384/1/51 386/1/51 385/1/51
f 386/1/50 388/1/50 387/1/50
f 388/1/49 390/1/49 389/1/49
f 382/1/5 380/1/5 378/1/5
f 378/1/5 392/1/5 382/1/5
f 392/1/5 390/1/5 382/1/5
f 390/1/5 388/1/5 382/1/5
f 388/1/5 386/1/5 382/1/5
f 390/1/48 392/1/48 391/1/48
f 392/1/47 378/1/47 377/1/47
f 394/1/52 396/1/52 395/1/52
f 396/1/51 398/1/51 397/1/51
f 398/1/50 400/1/50 399/1/50
f 400/1/49 402/1/49 401/1/49
f 402/1/48 404/1/48 403/1/48
f 404/1/47 406/1/47 405/1/47
f 398/1/5 396/1/5 394/1/5
f 394/1/5 408/1/5 406/1/5
f 406/1/5 404/1/5 402/1/5
f 402/1/5 400/1/5 398/1/5
f 398/1/5 394/1/5 402/1/5
f 406/1/54 408/1/54 407/1/54
f 408/1/53 394/1/53 393/1/53
f 410/1/48 412/1/48 411/1/48
f 412/1/47 414/1/47 413/1/47
f 414/1/54 416/1/54 415/1/54
f 416/1/53 418/1/53 417/1/53
f 418/1/52 420/1/52 419/1/52
f 420/1/51 422/1/51 421/1/51
f 414/1/5 412/1/5 410/1/5
f 410/1/5 424/1/5 414/1/5
f 424/1/5 422/1/5 414/1/5
f 422/1/5 420/1/5 418/1/5
f 418/1/5 416/1/5 422/1/5
f 422/1/50 424/1/50 423/1/50
f 424/1/49 410/1/49 409/1/49
f 426/1/50 428/1/50 427/1/50
f 428/1/49 430/1/49 429/1/49
f 430/1/48 432/1/48 431/1/48
f 432/1/47 434/1/47 433/1/47
f 434/1/54 436/1/54 435/1/54
f 436/1/53 438/1/53 437/1/53
f 430/1/5 428/1/5 426/1/5
f 426/1/5 440/1/5 430/1/5
f 440/1/5 438/1/5 430/1/5
f 438/1/5 436/1/5 430/1/5
f 436/1/5 434/1/5 430/1/5
f 438/1/52 440/1/52 439/1/52
f 440/1/51 426/1/51 425/1/51
